<?xml version="1.0" encoding="UTF-8"?>
<svg xmlns="http://www.w3.org/2000/svg" version="1.1" width="300" height="300" viewBox="0 0 300 300"><rect x="0" y="0" width="300" height="300" fill="#ffffff"/><g transform="scale(10.345)"><g transform="translate(0,0)"><path fill-rule="evenodd" d="M8 0L8 1L9 1L9 2L8 2L8 5L9 5L9 4L11 4L11 5L10 5L10 10L6 10L6 9L7 9L7 8L6 8L6 9L4 9L4 8L0 8L0 10L1 10L1 12L2 12L2 13L0 13L0 17L1 17L1 18L0 18L0 19L1 19L1 18L2 18L2 19L3 19L3 21L5 21L5 20L4 20L4 19L3 19L3 17L4 17L4 18L5 18L5 17L8 17L8 18L6 18L6 19L7 19L7 20L6 20L6 21L7 21L7 20L8 20L8 22L9 22L9 20L10 20L10 22L11 22L11 20L12 20L12 19L11 19L11 18L10 18L10 17L11 17L11 16L12 16L12 17L13 17L13 16L12 16L12 14L13 14L13 15L14 15L14 18L13 18L13 21L15 21L15 20L16 20L16 22L17 22L17 21L18 21L18 23L19 23L19 24L16 24L16 23L15 23L15 22L14 22L14 23L11 23L11 24L10 24L10 25L11 25L11 26L10 26L10 28L11 28L11 29L12 29L12 28L14 28L14 27L15 27L15 28L17 28L17 27L15 27L15 26L16 26L16 25L17 25L17 26L19 26L19 24L20 24L20 25L24 25L24 26L25 26L25 25L26 25L26 26L27 26L27 24L26 24L26 23L27 23L27 22L26 22L26 21L28 21L28 22L29 22L29 20L27 20L27 19L28 19L28 16L29 16L29 13L28 13L28 12L29 12L29 11L27 11L27 10L26 10L26 9L27 9L27 8L24 8L24 9L22 9L22 8L20 8L20 7L21 7L21 6L20 6L20 4L19 4L19 2L18 2L18 1L16 1L16 0L15 0L15 1L16 1L16 2L15 2L15 3L14 3L14 5L13 5L13 3L12 3L12 4L11 4L11 2L14 2L14 0L12 0L12 1L11 1L11 0L10 0L10 1L9 1L9 0ZM19 0L19 1L20 1L20 0ZM17 2L17 3L16 3L16 4L17 4L17 7L16 7L16 5L14 5L14 6L13 6L13 5L12 5L12 6L11 6L11 8L12 8L12 6L13 6L13 8L14 8L14 9L15 9L15 10L14 10L14 11L11 11L11 13L10 13L10 15L9 15L9 14L8 14L8 16L9 16L9 17L10 17L10 15L11 15L11 13L12 13L12 12L13 12L13 14L14 14L14 15L15 15L15 17L16 17L16 18L17 18L17 19L16 19L16 20L17 20L17 19L18 19L18 18L19 18L19 21L20 21L20 18L21 18L21 20L25 20L25 21L26 21L26 19L27 19L27 15L28 15L28 14L27 14L27 13L25 13L25 11L26 11L26 12L27 12L27 11L26 11L26 10L24 10L24 14L25 14L25 16L26 16L26 18L25 18L25 17L24 17L24 18L23 18L23 16L24 16L24 15L23 15L23 14L22 14L22 13L23 13L23 10L21 10L21 9L20 9L20 10L19 10L19 11L20 11L20 12L22 12L22 13L21 13L21 14L22 14L22 15L21 15L21 17L18 17L18 15L19 15L19 16L20 16L20 15L19 15L19 12L18 12L18 11L17 11L17 12L18 12L18 15L17 15L17 13L16 13L16 14L14 14L14 12L15 12L15 11L16 11L16 10L18 10L18 9L17 9L17 7L18 7L18 5L19 5L19 4L17 4L17 3L18 3L18 2ZM8 6L8 7L9 7L9 6ZM14 6L14 7L15 7L15 6ZM19 6L19 7L20 7L20 6ZM8 8L8 9L9 9L9 8ZM15 8L15 9L16 9L16 8ZM28 8L28 10L29 10L29 8ZM1 9L1 10L2 10L2 9ZM3 9L3 11L2 11L2 12L3 12L3 11L4 11L4 12L5 12L5 16L7 16L7 15L6 15L6 14L7 14L7 13L6 13L6 12L7 12L7 11L6 11L6 10L4 10L4 9ZM11 9L11 10L12 10L12 9ZM20 10L20 11L21 11L21 10ZM5 11L5 12L6 12L6 11ZM8 11L8 12L9 12L9 11ZM1 15L1 16L4 16L4 15ZM21 17L21 18L22 18L22 17ZM8 19L8 20L9 20L9 19ZM1 20L1 21L2 21L2 20ZM21 21L21 24L24 24L24 21ZM22 22L22 23L23 23L23 22ZM25 22L25 23L26 23L26 22ZM28 23L28 24L29 24L29 23ZM12 24L12 26L11 26L11 28L12 28L12 26L13 26L13 27L14 27L14 26L15 26L15 24ZM8 25L8 29L9 29L9 25ZM13 25L13 26L14 26L14 25ZM28 25L28 27L27 27L27 29L28 29L28 27L29 27L29 25ZM21 26L21 27L19 27L19 28L18 28L18 29L19 29L19 28L20 28L20 29L21 29L21 28L24 28L24 29L25 29L25 27L22 27L22 26ZM0 0L0 7L7 7L7 0ZM1 1L1 6L6 6L6 1ZM2 2L2 5L5 5L5 2ZM22 0L22 7L29 7L29 0ZM23 1L23 6L28 6L28 1ZM24 2L24 5L27 5L27 2ZM0 22L0 29L7 29L7 22ZM1 23L1 28L6 28L6 23ZM2 24L2 27L5 27L5 24Z" fill="#000000"/></g></g></svg>
