<?xml version="1.0" encoding="UTF-8"?>
<svg xmlns="http://www.w3.org/2000/svg" version="1.1" width="300" height="300" viewBox="0 0 300 300"><rect x="0" y="0" width="300" height="300" fill="#ffffff"/><g transform="scale(10.345)"><g transform="translate(0,0)"><path fill-rule="evenodd" d="M10 0L10 2L11 2L11 0ZM12 0L12 1L13 1L13 2L12 2L12 4L13 4L13 3L14 3L14 4L16 4L16 5L15 5L15 6L14 6L14 8L16 8L16 9L19 9L19 10L18 10L18 11L19 11L19 12L17 12L17 13L16 13L16 11L17 11L17 10L15 10L15 9L12 9L12 7L13 7L13 5L11 5L11 6L10 6L10 4L11 4L11 3L8 3L8 4L9 4L9 5L8 5L8 7L9 7L9 8L6 8L6 9L10 9L10 11L11 11L11 9L12 9L12 10L13 10L13 11L12 11L12 13L13 13L13 12L14 12L14 13L16 13L16 14L15 14L15 15L14 15L14 16L15 16L15 17L12 17L12 15L13 15L13 14L10 14L10 15L11 15L11 16L9 16L9 17L8 17L8 16L4 16L4 12L6 12L6 13L7 13L7 14L6 14L6 15L9 15L9 14L8 14L8 13L11 13L11 12L9 12L9 11L7 11L7 10L6 10L6 11L5 11L5 8L0 8L0 9L3 9L3 10L2 10L2 11L3 11L3 12L2 12L2 14L0 14L0 21L1 21L1 18L2 18L2 20L3 20L3 21L4 21L4 20L5 20L5 21L8 21L8 23L9 23L9 24L8 24L8 29L9 29L9 26L10 26L10 27L11 27L11 26L10 26L10 24L11 24L11 25L12 25L12 26L13 26L13 27L12 27L12 29L13 29L13 28L14 28L14 29L16 29L16 28L14 28L14 27L17 27L17 25L19 25L19 26L22 26L22 27L20 27L20 28L19 28L19 29L20 29L20 28L21 28L21 29L22 29L22 28L23 28L23 29L24 29L24 28L25 28L25 27L26 27L26 26L24 26L24 25L25 25L25 24L26 24L26 25L27 25L27 28L26 28L26 29L27 29L27 28L28 28L28 26L29 26L29 25L27 25L27 24L28 24L28 22L29 22L29 21L28 21L28 22L26 22L26 21L27 21L27 20L28 20L28 19L27 19L27 20L26 20L26 18L25 18L25 17L27 17L27 18L29 18L29 17L27 17L27 16L25 16L25 17L24 17L24 16L23 16L23 17L22 17L22 16L21 16L21 14L22 14L22 15L23 15L23 13L24 13L24 15L27 15L27 14L29 14L29 13L28 13L28 12L29 12L29 11L28 11L28 10L29 10L29 9L28 9L28 8L27 8L27 9L28 9L28 10L26 10L26 8L25 8L25 9L24 9L24 8L23 8L23 9L22 9L22 8L21 8L21 9L19 9L19 8L20 8L20 7L21 7L21 6L20 6L20 7L19 7L19 6L18 6L18 7L19 7L19 8L16 8L16 7L17 7L17 6L16 6L16 5L21 5L21 4L19 4L19 3L20 3L20 2L21 2L21 1L20 1L20 0L19 0L19 1L20 1L20 2L19 2L19 3L17 3L17 2L18 2L18 1L17 1L17 2L16 2L16 0L15 0L15 1L14 1L14 0ZM8 1L8 2L9 2L9 1ZM14 2L14 3L16 3L16 4L17 4L17 3L16 3L16 2ZM9 6L9 7L10 7L10 6ZM11 6L11 7L12 7L12 6ZM15 6L15 7L16 7L16 6ZM10 8L10 9L11 9L11 8ZM0 10L0 11L1 11L1 10ZM19 10L19 11L20 11L20 12L19 12L19 13L18 13L18 14L16 14L16 15L15 15L15 16L16 16L16 15L17 15L17 16L18 16L18 14L19 14L19 16L20 16L20 18L19 18L19 17L15 17L15 18L18 18L18 19L17 19L17 20L19 20L19 21L14 21L14 20L15 20L15 19L14 19L14 20L13 20L13 21L12 21L12 19L13 19L13 18L12 18L12 17L11 17L11 18L10 18L10 17L9 17L9 18L10 18L10 19L11 19L11 22L13 22L13 23L12 23L12 25L15 25L15 26L16 26L16 25L17 25L17 24L19 24L19 25L20 25L20 24L19 24L19 22L20 22L20 19L22 19L22 20L25 20L25 21L26 21L26 20L25 20L25 19L24 19L24 17L23 17L23 18L22 18L22 17L21 17L21 16L20 16L20 14L19 14L19 13L21 13L21 12L22 12L22 13L23 13L23 10ZM24 10L24 11L25 11L25 12L24 12L24 13L25 13L25 12L28 12L28 11L25 11L25 10ZM6 11L6 12L7 12L7 13L8 13L8 12L7 12L7 11ZM14 11L14 12L15 12L15 11ZM26 13L26 14L27 14L27 13ZM1 15L1 16L2 16L2 18L4 18L4 19L3 19L3 20L4 20L4 19L5 19L5 20L8 20L8 17L5 17L5 18L4 18L4 16L3 16L3 15ZM6 18L6 19L7 19L7 18ZM9 21L9 23L10 23L10 21ZM21 21L21 24L24 24L24 21ZM15 22L15 23L14 23L14 24L15 24L15 25L16 25L16 23L18 23L18 22ZM22 22L22 23L23 23L23 22ZM25 22L25 23L26 23L26 24L27 24L27 23L26 23L26 22ZM22 25L22 26L23 26L23 27L24 27L24 26L23 26L23 25ZM17 28L17 29L18 29L18 28ZM0 0L0 7L7 7L7 0ZM1 1L1 6L6 6L6 1ZM2 2L2 5L5 5L5 2ZM22 0L22 7L29 7L29 0ZM23 1L23 6L28 6L28 1ZM24 2L24 5L27 5L27 2ZM0 22L0 29L7 29L7 22ZM1 23L1 28L6 28L6 23ZM2 24L2 27L5 27L5 24Z" fill="#000000"/></g></g></svg>
