<?xml version="1.0" encoding="UTF-8"?>
<svg xmlns="http://www.w3.org/2000/svg" version="1.1" width="300" height="300" viewBox="0 0 300 300"><rect x="0" y="0" width="300" height="300" fill="#ffffff"/><g transform="scale(10.345)"><g transform="translate(0,0)"><path fill-rule="evenodd" d="M8 0L8 1L9 1L9 2L8 2L8 5L9 5L9 4L11 4L11 5L10 5L10 10L9 10L9 12L8 12L8 11L7 11L7 10L8 10L8 9L9 9L9 8L8 8L8 9L7 9L7 8L6 8L6 9L4 9L4 8L0 8L0 9L2 9L2 11L1 11L1 10L0 10L0 12L1 12L1 14L0 14L0 17L2 17L2 16L5 16L5 17L3 17L3 18L2 18L2 19L3 19L3 20L5 20L5 21L8 21L8 22L9 22L9 21L10 21L10 22L11 22L11 21L10 21L10 19L11 19L11 20L12 20L12 19L11 19L11 18L10 18L10 17L11 17L11 16L12 16L12 17L13 17L13 16L12 16L12 14L13 14L13 15L14 15L14 18L13 18L13 21L15 21L15 20L16 20L16 18L17 18L17 16L16 16L16 15L17 15L17 14L18 14L18 16L19 16L19 17L18 17L18 19L17 19L17 21L18 21L18 20L19 20L19 21L20 21L20 22L16 22L16 23L18 23L18 24L15 24L15 22L14 22L14 23L10 23L10 24L9 24L9 25L8 25L8 29L9 29L9 25L10 25L10 27L11 27L11 26L12 26L12 28L11 28L11 29L12 29L12 28L14 28L14 27L15 27L15 29L17 29L17 28L16 28L16 27L15 27L15 26L16 26L16 25L17 25L17 26L18 26L18 28L20 28L20 29L21 29L21 27L20 27L20 25L21 25L21 26L22 26L22 25L24 25L24 26L25 26L25 27L23 27L23 28L24 28L24 29L25 29L25 27L26 27L26 26L27 26L27 24L26 24L26 25L25 25L25 22L26 22L26 23L27 23L27 22L26 22L26 21L28 21L28 22L29 22L29 20L28 20L28 19L26 19L26 18L25 18L25 19L26 19L26 21L25 21L25 20L19 20L19 17L21 17L21 18L20 18L20 19L21 19L21 18L22 18L22 17L21 17L21 15L22 15L22 14L23 14L23 16L24 16L24 17L25 17L25 16L26 16L26 15L25 15L25 14L28 14L28 16L29 16L29 13L27 13L27 12L26 12L26 13L25 13L25 14L24 14L24 12L23 12L23 13L22 13L22 12L20 12L20 11L19 11L19 10L20 10L20 9L21 9L21 10L24 10L24 11L28 11L28 12L29 12L29 11L28 11L28 10L29 10L29 8L28 8L28 9L27 9L27 8L24 8L24 9L22 9L22 8L21 8L21 6L20 6L20 5L21 5L21 3L20 3L20 2L21 2L21 1L20 1L20 0L19 0L19 1L20 1L20 2L18 2L18 3L17 3L17 2L15 2L15 3L14 3L14 5L13 5L13 3L12 3L12 4L11 4L11 2L14 2L14 0L12 0L12 1L11 1L11 0L10 0L10 1L9 1L9 0ZM15 0L15 1L16 1L16 0ZM19 3L19 4L16 4L16 5L14 5L14 6L13 6L13 5L12 5L12 6L11 6L11 8L12 8L12 6L13 6L13 8L14 8L14 9L15 9L15 10L14 10L14 11L11 11L11 13L10 13L10 14L11 14L11 13L12 13L12 12L13 12L13 14L14 14L14 15L16 15L16 14L14 14L14 12L15 12L15 11L16 11L16 13L17 13L17 12L19 12L19 11L18 11L18 9L17 9L17 10L16 10L16 5L17 5L17 7L18 7L18 5L19 5L19 4L20 4L20 3ZM8 6L8 7L9 7L9 6ZM14 6L14 7L15 7L15 6ZM19 6L19 8L20 8L20 6ZM3 9L3 11L4 11L4 12L3 12L3 15L5 15L5 16L7 16L7 17L5 17L5 18L3 18L3 19L5 19L5 20L7 20L7 19L8 19L8 18L7 18L7 17L8 17L8 16L7 16L7 15L6 15L6 14L8 14L8 15L9 15L9 17L10 17L10 16L11 16L11 15L9 15L9 13L4 13L4 12L5 12L5 11L4 11L4 9ZM6 9L6 10L7 10L7 9ZM11 9L11 10L12 10L12 9ZM25 9L25 10L27 10L27 9ZM6 11L6 12L7 12L7 11ZM21 13L21 14L22 14L22 13ZM19 15L19 16L20 16L20 15ZM0 18L0 19L1 19L1 18ZM5 18L5 19L7 19L7 18ZM23 18L23 19L24 19L24 18ZM1 20L1 21L2 21L2 20ZM8 20L8 21L9 21L9 20ZM21 21L21 24L24 24L24 21ZM22 22L22 23L23 23L23 22ZM19 23L19 25L20 25L20 23ZM28 23L28 24L29 24L29 23ZM10 24L10 25L11 25L11 24ZM12 24L12 26L13 26L13 27L14 27L14 26L15 26L15 24ZM13 25L13 26L14 26L14 25ZM28 25L28 27L27 27L27 29L28 29L28 27L29 27L29 25ZM0 0L0 7L7 7L7 0ZM1 1L1 6L6 6L6 1ZM2 2L2 5L5 5L5 2ZM22 0L22 7L29 7L29 0ZM23 1L23 6L28 6L28 1ZM24 2L24 5L27 5L27 2ZM0 22L0 29L7 29L7 22ZM1 23L1 28L6 28L6 23ZM2 24L2 27L5 27L5 24Z" fill="#000000"/></g></g></svg>
