<?xml version="1.0" encoding="UTF-8"?>
<svg xmlns="http://www.w3.org/2000/svg" version="1.1" width="300" height="300" viewBox="0 0 300 300"><rect x="0" y="0" width="300" height="300" fill="#ffffff"/><g transform="scale(10.345)"><g transform="translate(0,0)"><path fill-rule="evenodd" d="M10 0L10 2L11 2L11 0ZM12 0L12 1L13 1L13 2L12 2L12 4L13 4L13 3L14 3L14 4L15 4L15 3L16 3L16 4L17 4L17 5L21 5L21 4L19 4L19 3L20 3L20 2L18 2L18 3L16 3L16 2L17 2L17 1L16 1L16 0L15 0L15 1L14 1L14 0ZM19 0L19 1L20 1L20 0ZM8 1L8 2L9 2L9 1ZM14 2L14 3L15 3L15 2ZM8 3L8 4L9 4L9 5L8 5L8 7L9 7L9 8L6 8L6 9L7 9L7 10L6 10L6 11L7 11L7 10L8 10L8 12L5 12L5 11L4 11L4 10L3 10L3 13L2 13L2 11L1 11L1 13L0 13L0 14L2 14L2 17L1 17L1 16L0 16L0 21L1 21L1 18L2 18L2 20L3 20L3 21L5 21L5 20L6 20L6 21L8 21L8 23L9 23L9 20L6 20L6 19L7 19L7 18L8 18L8 19L10 19L10 21L11 21L11 18L10 18L10 17L9 17L9 16L8 16L8 15L7 15L7 14L5 14L5 13L9 13L9 14L10 14L10 13L11 13L11 12L9 12L9 9L10 9L10 11L11 11L11 9L12 9L12 10L13 10L13 11L12 11L12 13L13 13L13 12L14 12L14 13L19 13L19 14L15 14L15 15L14 15L14 16L15 16L15 17L12 17L12 15L13 15L13 14L11 14L11 17L12 17L12 18L13 18L13 19L12 19L12 21L13 21L13 20L14 20L14 21L19 21L19 23L18 23L18 22L15 22L15 23L14 23L14 24L15 24L15 25L12 25L12 23L13 23L13 22L11 22L11 23L10 23L10 24L8 24L8 29L11 29L11 25L12 25L12 26L13 26L13 27L12 27L12 29L13 29L13 28L14 28L14 29L16 29L16 27L17 27L17 26L15 26L15 25L18 25L18 26L20 26L20 25L23 25L23 26L21 26L21 27L19 27L19 28L21 28L21 29L24 29L24 28L25 28L25 26L26 26L26 25L27 25L27 28L26 28L26 29L27 29L27 28L28 28L28 26L29 26L29 25L27 25L27 24L28 24L28 22L29 22L29 21L28 21L28 22L27 22L27 24L25 24L25 23L26 23L26 21L27 21L27 20L29 20L29 19L28 19L28 18L29 18L29 17L28 17L28 15L27 15L27 14L29 14L29 13L27 13L27 12L28 12L28 10L29 10L29 9L28 9L28 8L27 8L27 9L26 9L26 8L25 8L25 9L24 9L24 8L23 8L23 9L22 9L22 8L21 8L21 6L20 6L20 9L19 9L19 8L16 8L16 7L17 7L17 6L16 6L16 5L15 5L15 6L14 6L14 8L15 8L15 9L12 9L12 7L13 7L13 5L11 5L11 6L10 6L10 4L11 4L11 3ZM9 6L9 7L10 7L10 6ZM11 6L11 7L12 7L12 6ZM15 6L15 7L16 7L16 6ZM18 6L18 7L19 7L19 6ZM0 8L0 9L5 9L5 8ZM10 8L10 9L11 9L11 8ZM15 9L15 10L16 10L16 11L14 11L14 12L16 12L16 11L17 11L17 12L18 12L18 11L19 11L19 12L22 12L22 13L23 13L23 14L24 14L24 13L25 13L25 14L27 14L27 13L25 13L25 12L27 12L27 10L28 10L28 9L27 9L27 10L26 10L26 9L25 9L25 10L24 10L24 9L23 9L23 10L22 10L22 9L20 9L20 10L19 10L19 9ZM17 10L17 11L18 11L18 10ZM21 10L21 11L22 11L22 12L23 12L23 13L24 13L24 12L25 12L25 11L24 11L24 12L23 12L23 11L22 11L22 10ZM4 12L4 13L5 13L5 12ZM20 13L20 14L19 14L19 16L20 16L20 18L19 18L19 17L15 17L15 18L16 18L16 19L17 19L17 20L19 20L19 21L20 21L20 20L19 20L19 19L22 19L22 20L23 20L23 18L22 18L22 17L25 17L25 18L24 18L24 19L25 19L25 18L28 18L28 17L26 17L26 16L27 16L27 15L26 15L26 16L24 16L24 15L22 15L22 14L21 14L21 13ZM3 14L3 16L4 16L4 17L2 17L2 18L4 18L4 17L5 17L5 18L7 18L7 17L6 17L6 16L7 16L7 15L6 15L6 16L5 16L5 15L4 15L4 14ZM20 14L20 16L21 16L21 17L22 17L22 16L21 16L21 14ZM17 15L17 16L18 16L18 15ZM8 17L8 18L9 18L9 17ZM17 18L17 19L19 19L19 18ZM3 19L3 20L5 20L5 19ZM14 19L14 20L15 20L15 19ZM26 19L26 20L25 20L25 21L26 21L26 20L27 20L27 19ZM21 21L21 24L24 24L24 21ZM22 22L22 23L23 23L23 22ZM16 23L16 24L18 24L18 25L20 25L20 23L19 23L19 24L18 24L18 23ZM10 24L10 25L11 25L11 24ZM24 25L24 26L23 26L23 27L21 27L21 28L23 28L23 27L24 27L24 26L25 26L25 25ZM9 27L9 28L10 28L10 27ZM14 27L14 28L15 28L15 27ZM17 28L17 29L18 29L18 28ZM0 0L0 7L7 7L7 0ZM1 1L1 6L6 6L6 1ZM2 2L2 5L5 5L5 2ZM22 0L22 7L29 7L29 0ZM23 1L23 6L28 6L28 1ZM24 2L24 5L27 5L27 2ZM0 22L0 29L7 29L7 22ZM1 23L1 28L6 28L6 23ZM2 24L2 27L5 27L5 24Z" fill="#000000"/></g></g></svg>
