<?xml version="1.0" encoding="UTF-8"?>
<svg xmlns="http://www.w3.org/2000/svg" version="1.1" width="300" height="300" viewBox="0 0 300 300"><rect x="0" y="0" width="300" height="300" fill="#ffffff"/><g transform="scale(10.345)"><g transform="translate(0,0)"><path fill-rule="evenodd" d="M10 0L10 2L11 2L11 0ZM12 0L12 1L13 1L13 2L12 2L12 4L13 4L13 3L14 3L14 4L17 4L17 5L21 5L21 4L19 4L19 3L14 3L14 2L17 2L17 1L18 1L18 2L19 2L19 1L20 1L20 3L21 3L21 1L20 1L20 0L19 0L19 1L18 1L18 0L17 0L17 1L16 1L16 0L15 0L15 1L14 1L14 0ZM8 1L8 2L9 2L9 1ZM8 3L8 4L9 4L9 5L8 5L8 7L9 7L9 8L6 8L6 9L7 9L7 10L4 10L4 9L5 9L5 8L0 8L0 12L1 12L1 13L0 13L0 16L4 16L4 15L5 15L5 13L4 13L4 12L6 12L6 13L7 13L7 14L6 14L6 15L7 15L7 16L6 16L6 17L4 17L4 18L2 18L2 17L0 17L0 21L1 21L1 18L2 18L2 21L4 21L4 19L5 19L5 21L7 21L7 20L6 20L6 19L8 19L8 20L10 20L10 21L11 21L11 19L9 19L9 17L10 17L10 18L11 18L11 17L12 17L12 18L13 18L13 19L12 19L12 21L13 21L13 20L14 20L14 21L18 21L18 22L19 22L19 23L20 23L20 25L19 25L19 24L16 24L16 22L15 22L15 23L14 23L14 24L15 24L15 25L12 25L12 23L13 23L13 22L9 22L9 21L8 21L8 23L9 23L9 24L8 24L8 29L10 29L10 25L12 25L12 26L13 26L13 27L12 27L12 29L13 29L13 28L14 28L14 29L19 29L19 28L22 28L22 27L23 27L23 29L24 29L24 28L25 28L25 26L26 26L26 25L27 25L27 28L26 28L26 29L27 29L27 28L28 28L28 26L29 26L29 25L27 25L27 24L28 24L28 22L29 22L29 21L28 21L28 22L26 22L26 23L27 23L27 24L25 24L25 20L26 20L26 21L27 21L27 20L29 20L29 19L28 19L28 18L29 18L29 17L28 17L28 16L29 16L29 15L28 15L28 14L29 14L29 12L26 12L26 11L27 11L27 10L29 10L29 9L28 9L28 8L27 8L27 10L26 10L26 11L24 11L24 12L26 12L26 13L22 13L22 12L23 12L23 11L22 11L22 10L23 10L23 9L24 9L24 10L25 10L25 9L26 9L26 8L25 8L25 9L24 9L24 8L23 8L23 9L22 9L22 8L20 8L20 9L19 9L19 8L17 8L17 6L16 6L16 5L15 5L15 6L14 6L14 8L15 8L15 9L12 9L12 7L13 7L13 5L11 5L11 6L10 6L10 4L11 4L11 3ZM9 6L9 7L10 7L10 6ZM11 6L11 7L12 7L12 6ZM15 6L15 7L16 7L16 6ZM18 6L18 7L19 7L19 6ZM20 6L20 7L21 7L21 6ZM10 8L10 9L8 9L8 10L7 10L7 11L6 11L6 12L7 12L7 13L9 13L9 14L13 14L13 15L12 15L12 17L15 17L15 18L16 18L16 19L17 19L17 20L18 20L18 21L20 21L20 20L21 20L21 19L22 19L22 20L23 20L23 18L22 18L22 17L25 17L25 18L24 18L24 19L26 19L26 20L27 20L27 19L26 19L26 18L28 18L28 17L25 17L25 16L28 16L28 15L27 15L27 14L28 14L28 13L26 13L26 14L25 14L25 16L24 16L24 15L22 15L22 14L21 14L21 13L20 13L20 14L18 14L18 13L19 13L19 12L22 12L22 11L21 11L21 10L22 10L22 9L20 9L20 10L19 10L19 9L17 9L17 8L16 8L16 9L15 9L15 10L16 10L16 11L14 11L14 12L13 12L13 13L12 13L12 11L13 11L13 10L12 10L12 9L11 9L11 8ZM2 9L2 10L1 10L1 12L2 12L2 10L3 10L3 11L4 11L4 10L3 10L3 9ZM10 9L10 11L11 11L11 9ZM16 9L16 10L17 10L17 9ZM8 10L8 11L7 11L7 12L9 12L9 13L11 13L11 12L9 12L9 10ZM18 10L18 12L17 12L17 11L16 11L16 12L14 12L14 13L18 13L18 12L19 12L19 10ZM2 14L2 15L4 15L4 14ZM15 14L15 15L14 15L14 16L15 16L15 17L16 17L16 18L17 18L17 19L18 19L18 18L17 18L17 17L19 17L19 18L20 18L20 19L19 19L19 20L20 20L20 19L21 19L21 18L20 18L20 16L21 16L21 17L22 17L22 16L21 16L21 14L20 14L20 16L17 16L17 15L16 15L16 14ZM8 15L8 16L9 16L9 15ZM15 15L15 16L16 16L16 17L17 17L17 16L16 16L16 15ZM6 17L6 18L5 18L5 19L6 19L6 18L7 18L7 17ZM14 19L14 20L15 20L15 19ZM21 21L21 24L24 24L24 21ZM22 22L22 23L23 23L23 22ZM10 23L10 24L11 24L11 23ZM15 25L15 26L16 26L16 27L17 27L17 28L18 28L18 27L21 27L21 26L23 26L23 27L24 27L24 26L25 26L25 25L24 25L24 26L23 26L23 25L20 25L20 26L19 26L19 25ZM17 26L17 27L18 27L18 26ZM14 27L14 28L15 28L15 27ZM0 0L0 7L7 7L7 0ZM1 1L1 6L6 6L6 1ZM2 2L2 5L5 5L5 2ZM22 0L22 7L29 7L29 0ZM23 1L23 6L28 6L28 1ZM24 2L24 5L27 5L27 2ZM0 22L0 29L7 29L7 22ZM1 23L1 28L6 28L6 23ZM2 24L2 27L5 27L5 24Z" fill="#000000"/></g></g></svg>
