<?xml version="1.0" encoding="UTF-8"?>
<svg xmlns="http://www.w3.org/2000/svg" version="1.1" width="300" height="300" viewBox="0 0 300 300"><rect x="0" y="0" width="300" height="300" fill="#ffffff"/><g transform="scale(10.345)"><g transform="translate(0,0)"><path fill-rule="evenodd" d="M10 0L10 2L11 2L11 0ZM12 0L12 1L13 1L13 2L12 2L12 4L13 4L13 3L14 3L14 4L17 4L17 5L15 5L15 6L14 6L14 8L16 8L16 9L18 9L18 10L15 10L15 9L12 9L12 7L13 7L13 5L11 5L11 6L10 6L10 4L11 4L11 3L8 3L8 4L9 4L9 5L8 5L8 7L9 7L9 8L6 8L6 9L5 9L5 8L0 8L0 12L2 12L2 13L0 13L0 15L1 15L1 16L0 16L0 21L1 21L1 17L2 17L2 15L1 15L1 14L2 14L2 13L4 13L4 15L3 15L3 16L4 16L4 15L8 15L8 16L9 16L9 17L10 17L10 18L9 18L9 19L10 19L10 20L8 20L8 19L7 19L7 18L8 18L8 17L7 17L7 16L6 16L6 17L7 17L7 18L6 18L6 19L7 19L7 20L4 20L4 19L5 19L5 17L4 17L4 18L3 18L3 20L2 20L2 21L3 21L3 20L4 20L4 21L8 21L8 23L9 23L9 24L8 24L8 29L9 29L9 27L10 27L10 29L11 29L11 27L10 27L10 26L11 26L11 25L12 25L12 26L13 26L13 27L12 27L12 29L13 29L13 28L14 28L14 29L20 29L20 28L21 28L21 29L24 29L24 28L25 28L25 26L26 26L26 25L27 25L27 28L26 28L26 29L27 29L27 28L28 28L28 26L29 26L29 25L27 25L27 24L28 24L28 22L29 22L29 21L28 21L28 22L26 22L26 23L27 23L27 24L25 24L25 21L27 21L27 20L29 20L29 19L28 19L28 18L29 18L29 17L28 17L28 18L26 18L26 17L27 17L27 16L25 16L25 15L23 15L23 14L26 14L26 13L28 13L28 14L27 14L27 15L28 15L28 14L29 14L29 13L28 13L28 12L29 12L29 11L28 11L28 10L29 10L29 9L28 9L28 8L27 8L27 9L26 9L26 8L25 8L25 9L24 9L24 8L23 8L23 9L22 9L22 8L20 8L20 7L21 7L21 6L20 6L20 7L19 7L19 6L18 6L18 7L19 7L19 8L20 8L20 9L18 9L18 8L16 8L16 7L17 7L17 5L21 5L21 4L19 4L19 2L18 2L18 1L17 1L17 2L16 2L16 0L15 0L15 1L14 1L14 0ZM19 0L19 1L20 1L20 2L21 2L21 1L20 1L20 0ZM8 1L8 2L9 2L9 1ZM14 2L14 3L15 3L15 2ZM17 2L17 3L18 3L18 2ZM9 6L9 7L10 7L10 6ZM11 6L11 7L12 7L12 6ZM15 6L15 7L16 7L16 6ZM10 8L10 9L6 9L6 10L5 10L5 9L4 9L4 11L6 11L6 12L4 12L4 13L6 13L6 14L10 14L10 17L11 17L11 18L10 18L10 19L11 19L11 22L10 22L10 21L9 21L9 22L10 22L10 25L11 25L11 22L13 22L13 23L12 23L12 25L15 25L15 26L16 26L16 27L14 27L14 28L20 28L20 27L22 27L22 28L23 28L23 27L24 27L24 26L25 26L25 25L24 25L24 26L23 26L23 25L22 25L22 26L21 26L21 25L20 25L20 23L17 23L17 22L19 22L19 21L20 21L20 19L22 19L22 20L24 20L24 19L25 19L25 20L27 20L27 19L26 19L26 18L24 18L24 17L25 17L25 16L24 16L24 17L23 17L23 15L22 15L22 14L21 14L21 16L20 16L20 14L19 14L19 13L21 13L21 12L22 12L22 13L26 13L26 12L28 12L28 11L27 11L27 10L28 10L28 9L27 9L27 10L26 10L26 9L25 9L25 10L24 10L24 9L23 9L23 10L22 10L22 9L20 9L20 10L19 10L19 11L16 11L16 12L19 12L19 13L14 13L14 12L15 12L15 11L14 11L14 12L13 12L13 13L12 13L12 11L13 11L13 10L12 10L12 9L11 9L11 8ZM1 9L1 11L2 11L2 9ZM10 9L10 11L11 11L11 9ZM6 10L6 11L8 11L8 10ZM20 10L20 11L22 11L22 10ZM24 11L24 12L26 12L26 11ZM6 12L6 13L8 13L8 12ZM9 12L9 13L11 13L11 12ZM11 14L11 17L12 17L12 18L13 18L13 19L12 19L12 21L13 21L13 20L14 20L14 21L16 21L16 22L15 22L15 23L14 23L14 24L15 24L15 25L19 25L19 24L15 24L15 23L16 23L16 22L17 22L17 21L19 21L19 20L17 20L17 21L16 21L16 20L14 20L14 19L17 19L17 18L15 18L15 17L19 17L19 18L18 18L18 19L19 19L19 18L20 18L20 16L17 16L17 15L18 15L18 14L17 14L17 15L16 15L16 14L15 14L15 15L14 15L14 16L15 16L15 17L12 17L12 15L13 15L13 14ZM21 16L21 17L22 17L22 18L23 18L23 17L22 17L22 16ZM21 21L21 24L24 24L24 21ZM22 22L22 23L23 23L23 22ZM17 26L17 27L20 27L20 26ZM22 26L22 27L23 27L23 26ZM0 0L0 7L7 7L7 0ZM1 1L1 6L6 6L6 1ZM2 2L2 5L5 5L5 2ZM22 0L22 7L29 7L29 0ZM23 1L23 6L28 6L28 1ZM24 2L24 5L27 5L27 2ZM0 22L0 29L7 29L7 22ZM1 23L1 28L6 28L6 23ZM2 24L2 27L5 27L5 24Z" fill="#000000"/></g></g></svg>
