<?xml version="1.0" encoding="UTF-8"?>
<svg xmlns="http://www.w3.org/2000/svg" version="1.1" width="300" height="300" viewBox="0 0 300 300"><rect x="0" y="0" width="300" height="300" fill="#ffffff"/><g transform="scale(10.345)"><g transform="translate(0,0)"><path fill-rule="evenodd" d="M10 0L10 2L11 2L11 0ZM12 0L12 1L13 1L13 2L12 2L12 4L13 4L13 3L14 3L14 4L17 4L17 5L20 5L20 9L19 9L19 8L17 8L17 6L16 6L16 5L15 5L15 6L14 6L14 8L15 8L15 9L12 9L12 7L13 7L13 5L11 5L11 6L10 6L10 4L11 4L11 3L8 3L8 4L9 4L9 5L8 5L8 7L9 7L9 8L6 8L6 9L7 9L7 10L5 10L5 8L0 8L0 11L1 11L1 12L0 12L0 15L1 15L1 16L2 16L2 17L0 17L0 21L1 21L1 18L2 18L2 17L3 17L3 18L6 18L6 19L7 19L7 20L6 20L6 21L8 21L8 23L10 23L10 24L8 24L8 29L11 29L11 26L10 26L10 24L11 24L11 25L12 25L12 26L13 26L13 27L12 27L12 29L13 29L13 28L14 28L14 29L19 29L19 28L21 28L21 29L22 29L22 27L23 27L23 29L24 29L24 28L25 28L25 27L26 27L26 25L27 25L27 28L26 28L26 29L27 29L27 28L28 28L28 26L29 26L29 25L27 25L27 24L28 24L28 22L29 22L29 21L28 21L28 22L25 22L25 21L27 21L27 20L29 20L29 19L28 19L28 18L29 18L29 17L28 17L28 18L26 18L26 19L27 19L27 20L25 20L25 17L27 17L27 16L25 16L25 17L24 17L24 16L23 16L23 17L22 17L22 16L21 16L21 14L22 14L22 15L26 15L26 13L27 13L27 14L29 14L29 13L28 13L28 12L26 12L26 10L25 10L25 9L26 9L26 8L25 8L25 9L24 9L24 8L23 8L23 9L22 9L22 8L21 8L21 5L20 5L20 4L21 4L21 1L20 1L20 0L19 0L19 1L18 1L18 3L16 3L16 0L15 0L15 1L14 1L14 0ZM8 1L8 2L9 2L9 1ZM19 1L19 2L20 2L20 1ZM14 2L14 3L15 3L15 2ZM19 3L19 4L20 4L20 3ZM9 6L9 7L10 7L10 6ZM11 6L11 7L12 7L12 6ZM15 6L15 7L16 7L16 6ZM18 6L18 7L19 7L19 6ZM10 8L10 9L8 9L8 10L7 10L7 11L5 11L5 12L4 12L4 9L3 9L3 12L1 12L1 13L2 13L2 14L1 14L1 15L2 15L2 16L3 16L3 15L4 15L4 14L5 14L5 13L6 13L6 14L7 14L7 15L5 15L5 16L4 16L4 17L5 17L5 16L8 16L8 17L6 17L6 18L7 18L7 19L8 19L8 21L9 21L9 22L10 22L10 23L11 23L11 22L13 22L13 23L12 23L12 25L15 25L15 26L18 26L18 27L17 27L17 28L18 28L18 27L19 27L19 26L18 26L18 25L20 25L20 27L22 27L22 26L25 26L25 25L26 25L26 24L27 24L27 23L26 23L26 24L25 24L25 25L22 25L22 26L21 26L21 25L20 25L20 24L18 24L18 23L19 23L19 22L20 22L20 20L19 20L19 21L14 21L14 20L15 20L15 19L14 19L14 20L13 20L13 21L12 21L12 19L13 19L13 18L12 18L12 17L15 17L15 18L16 18L16 20L18 20L18 19L17 19L17 18L18 18L18 17L19 17L19 16L20 16L20 18L19 18L19 19L22 19L22 20L23 20L23 19L24 19L24 17L23 17L23 18L22 18L22 17L21 17L21 16L20 16L20 14L19 14L19 13L21 13L21 11L23 11L23 12L22 12L22 13L26 13L26 12L24 12L24 11L25 11L25 10L24 10L24 9L23 9L23 10L22 10L22 9L20 9L20 10L19 10L19 9L17 9L17 8L16 8L16 9L15 9L15 10L16 10L16 9L17 9L17 11L16 11L16 12L19 12L19 13L14 13L14 12L15 12L15 11L14 11L14 12L13 12L13 13L12 13L12 11L13 11L13 10L12 10L12 9L11 9L11 8ZM27 8L27 10L29 10L29 9L28 9L28 8ZM10 9L10 11L11 11L11 9ZM18 10L18 11L19 11L19 10ZM20 10L20 11L21 11L21 10ZM6 12L6 13L7 13L7 14L8 14L8 16L9 16L9 17L8 17L8 19L9 19L9 17L10 17L10 16L11 16L11 17L12 17L12 15L13 15L13 14L9 14L9 13L11 13L11 12ZM2 14L2 15L3 15L3 14ZM15 14L15 15L14 15L14 16L15 16L15 17L18 17L18 16L19 16L19 14L18 14L18 16L17 16L17 15L16 15L16 14ZM9 15L9 16L10 16L10 15ZM15 15L15 16L16 16L16 15ZM10 18L10 20L9 20L9 21L10 21L10 20L11 20L11 18ZM2 19L2 21L5 21L5 19ZM21 21L21 24L24 24L24 21ZM15 22L15 23L14 23L14 24L15 24L15 25L18 25L18 24L17 24L17 22ZM22 22L22 23L23 23L23 22ZM15 23L15 24L16 24L16 23ZM9 26L9 28L10 28L10 26ZM14 27L14 28L16 28L16 27ZM0 0L0 7L7 7L7 0ZM1 1L1 6L6 6L6 1ZM2 2L2 5L5 5L5 2ZM22 0L22 7L29 7L29 0ZM23 1L23 6L28 6L28 1ZM24 2L24 5L27 5L27 2ZM0 22L0 29L7 29L7 22ZM1 23L1 28L6 28L6 23ZM2 24L2 27L5 27L5 24Z" fill="#000000"/></g></g></svg>
