<?xml version="1.0" encoding="UTF-8"?>
<svg xmlns="http://www.w3.org/2000/svg" version="1.1" width="300" height="300" viewBox="0 0 300 300"><rect x="0" y="0" width="300" height="300" fill="#ffffff"/><g transform="scale(10.345)"><g transform="translate(0,0)"><path fill-rule="evenodd" d="M10 0L10 2L11 2L11 0ZM12 0L12 1L13 1L13 2L12 2L12 4L13 4L13 3L14 3L14 4L16 4L16 5L15 5L15 6L14 6L14 8L15 8L15 9L12 9L12 7L13 7L13 5L11 5L11 6L10 6L10 4L11 4L11 3L8 3L8 4L9 4L9 5L8 5L8 7L9 7L9 8L6 8L6 9L7 9L7 10L5 10L5 11L7 11L7 12L2 12L2 13L0 13L0 15L3 15L3 13L7 13L7 14L6 14L6 15L4 15L4 16L5 16L5 17L7 17L7 18L6 18L6 19L5 19L5 20L4 20L4 17L3 17L3 20L2 20L2 21L5 21L5 20L6 20L6 21L8 21L8 23L9 23L9 24L8 24L8 29L9 29L9 24L10 24L10 25L12 25L12 26L13 26L13 27L12 27L12 29L13 29L13 28L14 28L14 29L15 29L15 28L16 28L16 29L20 29L20 28L21 28L21 27L20 27L20 26L19 26L19 25L18 25L18 24L20 24L20 25L21 25L21 26L22 26L22 27L23 27L23 29L24 29L24 28L25 28L25 26L22 26L22 25L27 25L27 28L26 28L26 29L27 29L27 28L28 28L28 26L29 26L29 25L27 25L27 24L28 24L28 22L29 22L29 21L28 21L28 22L26 22L26 21L27 21L27 20L29 20L29 19L27 19L27 18L29 18L29 17L27 17L27 16L29 16L29 15L27 15L27 14L29 14L29 13L27 13L27 12L25 12L25 11L26 11L26 10L27 10L27 11L28 11L28 10L29 10L29 9L28 9L28 8L27 8L27 9L26 9L26 8L25 8L25 9L24 9L24 8L23 8L23 9L22 9L22 8L21 8L21 5L20 5L20 4L21 4L21 3L20 3L20 2L21 2L21 1L20 1L20 0L19 0L19 1L16 1L16 0L15 0L15 1L14 1L14 0ZM8 1L8 2L9 2L9 1ZM19 1L19 2L14 2L14 3L16 3L16 4L17 4L17 3L19 3L19 4L20 4L20 3L19 3L19 2L20 2L20 1ZM17 5L17 8L19 8L19 9L15 9L15 10L17 10L17 11L16 11L16 12L19 12L19 13L14 13L14 12L15 12L15 11L14 11L14 12L13 12L13 13L12 13L12 11L13 11L13 10L12 10L12 9L11 9L11 8L10 8L10 9L8 9L8 10L7 10L7 11L8 11L8 12L7 12L7 13L8 13L8 15L6 15L6 16L7 16L7 17L8 17L8 19L6 19L6 20L8 20L8 21L11 21L11 22L13 22L13 23L12 23L12 25L15 25L15 26L16 26L16 28L20 28L20 27L17 27L17 26L18 26L18 25L17 25L17 24L18 24L18 23L17 23L17 22L18 22L18 21L19 21L19 22L20 22L20 18L21 18L21 19L22 19L22 20L23 20L23 19L24 19L24 17L26 17L26 18L25 18L25 20L27 20L27 19L26 19L26 18L27 18L27 17L26 17L26 16L27 16L27 15L26 15L26 16L24 16L24 15L22 15L22 14L21 14L21 16L20 16L20 14L19 14L19 13L21 13L21 11L22 11L22 13L23 13L23 14L24 14L24 13L25 13L25 12L24 12L24 9L23 9L23 10L22 10L22 9L21 9L21 8L20 8L20 5ZM9 6L9 7L10 7L10 6ZM11 6L11 7L12 7L12 6ZM15 6L15 8L16 8L16 6ZM18 6L18 7L19 7L19 6ZM0 8L0 9L5 9L5 8ZM10 9L10 11L11 11L11 9ZM19 9L19 10L18 10L18 11L19 11L19 10L20 10L20 11L21 11L21 9ZM25 9L25 10L26 10L26 9ZM27 9L27 10L28 10L28 9ZM0 10L0 11L1 11L1 10ZM2 10L2 11L4 11L4 10ZM9 12L9 14L10 14L10 13L11 13L11 12ZM23 12L23 13L24 13L24 12ZM26 13L26 14L27 14L27 13ZM11 14L11 15L8 15L8 17L12 17L12 18L13 18L13 19L12 19L12 21L13 21L13 20L14 20L14 21L18 21L18 20L19 20L19 18L20 18L20 16L16 16L16 14L15 14L15 15L14 15L14 16L16 16L16 17L19 17L19 18L17 18L17 19L16 19L16 18L15 18L15 17L12 17L12 15L13 15L13 14ZM17 14L17 15L18 15L18 14ZM1 16L1 17L0 17L0 21L1 21L1 17L2 17L2 16ZM21 16L21 17L22 17L22 18L23 18L23 17L24 17L24 16L23 16L23 17L22 17L22 16ZM9 18L9 19L10 19L10 18ZM14 19L14 20L16 20L16 19ZM17 19L17 20L18 20L18 19ZM21 21L21 24L24 24L24 21ZM9 22L9 23L10 23L10 24L11 24L11 23L10 23L10 22ZM15 22L15 23L14 23L14 24L15 24L15 25L16 25L16 26L17 26L17 25L16 25L16 24L17 24L17 23L16 23L16 22ZM22 22L22 23L23 23L23 22ZM25 22L25 24L27 24L27 23L26 23L26 22ZM15 23L15 24L16 24L16 23ZM14 27L14 28L15 28L15 27ZM0 0L0 7L7 7L7 0ZM1 1L1 6L6 6L6 1ZM2 2L2 5L5 5L5 2ZM22 0L22 7L29 7L29 0ZM23 1L23 6L28 6L28 1ZM24 2L24 5L27 5L27 2ZM0 22L0 29L7 29L7 22ZM1 23L1 28L6 28L6 23ZM2 24L2 27L5 27L5 24Z" fill="#000000"/></g></g></svg>
