<?xml version="1.0" encoding="UTF-8"?>
<svg xmlns="http://www.w3.org/2000/svg" version="1.1" width="300" height="300" viewBox="0 0 300 300"><rect x="0" y="0" width="300" height="300" fill="#ffffff"/><g transform="scale(10.345)"><g transform="translate(0,0)"><path fill-rule="evenodd" d="M10 0L10 2L11 2L11 0ZM12 0L12 1L13 1L13 2L12 2L12 4L13 4L13 3L14 3L14 4L15 4L15 3L16 3L16 4L17 4L17 5L20 5L20 4L21 4L21 3L16 3L16 0L15 0L15 1L14 1L14 0ZM19 0L19 1L17 1L17 2L19 2L19 1L20 1L20 0ZM8 1L8 2L9 2L9 1ZM14 2L14 3L15 3L15 2ZM8 3L8 4L9 4L9 5L8 5L8 7L9 7L9 8L6 8L6 9L5 9L5 8L0 8L0 11L2 11L2 12L3 12L3 14L4 14L4 16L3 16L3 15L2 15L2 13L1 13L1 12L0 12L0 21L1 21L1 18L2 18L2 20L3 20L3 21L5 21L5 20L4 20L4 19L5 19L5 18L4 18L4 16L5 16L5 14L4 14L4 10L1 10L1 9L5 9L5 12L6 12L6 13L7 13L7 14L6 14L6 15L7 15L7 16L6 16L6 17L8 17L8 18L6 18L6 19L7 19L7 20L6 20L6 21L7 21L7 20L9 20L9 21L8 21L8 23L11 23L11 25L12 25L12 26L13 26L13 27L12 27L12 29L13 29L13 28L14 28L14 29L19 29L19 28L21 28L21 29L24 29L24 28L25 28L25 26L24 26L24 25L25 25L25 24L26 24L26 25L27 25L27 26L26 26L26 27L27 27L27 28L26 28L26 29L27 29L27 28L28 28L28 26L29 26L29 25L27 25L27 24L28 24L28 22L29 22L29 20L28 20L28 18L29 18L29 17L28 17L28 18L27 18L27 16L25 16L25 15L23 15L23 13L24 13L24 14L25 14L25 13L27 13L27 12L29 12L29 11L27 11L27 12L25 12L25 11L26 11L26 10L25 10L25 9L26 9L26 8L25 8L25 9L24 9L24 8L23 8L23 9L22 9L22 8L21 8L21 6L20 6L20 7L19 7L19 6L18 6L18 7L19 7L19 8L16 8L16 7L17 7L17 6L16 6L16 5L15 5L15 6L14 6L14 8L15 8L15 9L12 9L12 7L13 7L13 5L11 5L11 6L10 6L10 4L11 4L11 3ZM9 6L9 7L10 7L10 6ZM11 6L11 7L12 7L12 6ZM15 6L15 7L16 7L16 6ZM10 8L10 9L6 9L6 10L7 10L7 11L6 11L6 12L8 12L8 11L9 11L9 12L11 12L11 13L10 13L10 14L13 14L13 15L12 15L12 17L10 17L10 15L9 15L9 13L8 13L8 14L7 14L7 15L9 15L9 16L8 16L8 17L9 17L9 18L10 18L10 19L9 19L9 20L10 20L10 19L11 19L11 21L10 21L10 22L13 22L13 23L12 23L12 25L15 25L15 26L16 26L16 27L14 27L14 28L16 28L16 27L17 27L17 28L18 28L18 26L19 26L19 27L21 27L21 26L23 26L23 27L22 27L22 28L23 28L23 27L24 27L24 26L23 26L23 25L21 25L21 26L19 26L19 25L20 25L20 23L19 23L19 21L17 21L17 20L21 20L21 19L22 19L22 20L24 20L24 19L25 19L25 18L26 18L26 20L25 20L25 21L26 21L26 22L25 22L25 23L26 23L26 24L27 24L27 23L26 23L26 22L28 22L28 21L26 21L26 20L27 20L27 18L26 18L26 17L25 17L25 16L24 16L24 17L23 17L23 15L22 15L22 14L21 14L21 16L20 16L20 14L19 14L19 13L21 13L21 11L23 11L23 10L19 10L19 9L21 9L21 8L19 8L19 9L15 9L15 10L16 10L16 11L14 11L14 12L13 12L13 13L12 13L12 11L13 11L13 10L12 10L12 9L11 9L11 8ZM27 8L27 10L29 10L29 9L28 9L28 8ZM10 9L10 11L11 11L11 9ZM17 10L17 11L16 11L16 12L14 12L14 13L17 13L17 14L15 14L15 15L14 15L14 16L15 16L15 17L12 17L12 18L13 18L13 19L12 19L12 21L13 21L13 20L14 20L14 21L16 21L16 22L15 22L15 23L14 23L14 24L15 24L15 25L16 25L16 26L18 26L18 25L19 25L19 24L17 24L17 23L16 23L16 22L17 22L17 21L16 21L16 19L17 19L17 18L15 18L15 17L18 17L18 19L19 19L19 18L20 18L20 16L19 16L19 14L18 14L18 13L19 13L19 12L20 12L20 11L18 11L18 10ZM24 10L24 11L25 11L25 10ZM17 11L17 12L18 12L18 11ZM22 12L22 13L23 13L23 12ZM24 12L24 13L25 13L25 12ZM28 13L28 14L26 14L26 15L28 15L28 16L29 16L29 15L28 15L28 14L29 14L29 13ZM17 14L17 16L18 16L18 17L19 17L19 16L18 16L18 14ZM1 16L1 17L2 17L2 16ZM21 16L21 17L22 17L22 18L23 18L23 19L24 19L24 18L25 18L25 17L24 17L24 18L23 18L23 17L22 17L22 16ZM14 19L14 20L15 20L15 19ZM21 21L21 24L24 24L24 21ZM22 22L22 23L23 23L23 22ZM8 24L8 29L9 29L9 26L10 26L10 24ZM16 24L16 25L17 25L17 24ZM10 27L10 29L11 29L11 27ZM0 0L0 7L7 7L7 0ZM1 1L1 6L6 6L6 1ZM2 2L2 5L5 5L5 2ZM22 0L22 7L29 7L29 0ZM23 1L23 6L28 6L28 1ZM24 2L24 5L27 5L27 2ZM0 22L0 29L7 29L7 22ZM1 23L1 28L6 28L6 23ZM2 24L2 27L5 27L5 24Z" fill="#000000"/></g></g></svg>
