<?xml version="1.0" encoding="UTF-8"?>
<svg xmlns="http://www.w3.org/2000/svg" version="1.1" width="300" height="300" viewBox="0 0 300 300"><rect x="0" y="0" width="300" height="300" fill="#ffffff"/><g transform="scale(10.345)"><g transform="translate(0,0)"><path fill-rule="evenodd" d="M10 0L10 2L11 2L11 0ZM12 0L12 1L13 1L13 2L12 2L12 4L13 4L13 3L14 3L14 4L17 4L17 5L20 5L20 7L21 7L21 5L20 5L20 4L21 4L21 2L19 2L19 1L20 1L20 0L19 0L19 1L17 1L17 2L16 2L16 0L15 0L15 1L14 1L14 0ZM8 1L8 2L9 2L9 1ZM14 2L14 3L16 3L16 2ZM17 2L17 3L18 3L18 2ZM8 3L8 4L9 4L9 5L8 5L8 7L9 7L9 8L6 8L6 9L5 9L5 8L0 8L0 9L1 9L1 11L0 11L0 12L1 12L1 13L0 13L0 14L1 14L1 15L3 15L3 16L4 16L4 15L5 15L5 14L6 14L6 15L7 15L7 16L5 16L5 17L7 17L7 18L6 18L6 19L9 19L9 20L10 20L10 21L8 21L8 20L5 20L5 21L8 21L8 23L9 23L9 24L8 24L8 29L11 29L11 26L10 26L10 25L12 25L12 26L13 26L13 27L12 27L12 29L13 29L13 28L14 28L14 29L20 29L20 28L21 28L21 29L24 29L24 28L25 28L25 27L27 27L27 28L26 28L26 29L27 29L27 28L28 28L28 26L29 26L29 25L27 25L27 24L28 24L28 22L29 22L29 20L28 20L28 19L27 19L27 20L25 20L25 19L26 19L26 17L27 17L27 18L29 18L29 17L28 17L28 16L29 16L29 15L28 15L28 16L25 16L25 15L26 15L26 14L25 14L25 13L24 13L24 12L23 12L23 13L22 13L22 11L25 11L25 12L26 12L26 13L27 13L27 14L29 14L29 13L27 13L27 12L26 12L26 10L25 10L25 9L26 9L26 8L25 8L25 9L24 9L24 8L23 8L23 9L22 9L22 8L16 8L16 7L17 7L17 6L16 6L16 5L15 5L15 6L14 6L14 8L16 8L16 9L19 9L19 10L20 10L20 11L21 11L21 12L19 12L19 11L18 11L18 10L17 10L17 11L16 11L16 10L15 10L15 9L12 9L12 7L13 7L13 5L11 5L11 6L10 6L10 4L11 4L11 3ZM19 3L19 4L20 4L20 3ZM9 6L9 7L10 7L10 6ZM11 6L11 7L12 7L12 6ZM15 6L15 7L16 7L16 6ZM18 6L18 7L19 7L19 6ZM10 8L10 9L9 9L9 12L8 12L8 13L6 13L6 12L7 12L7 11L4 11L4 12L5 12L5 13L6 13L6 14L7 14L7 15L8 15L8 17L10 17L10 16L9 16L9 15L11 15L11 14L13 14L13 15L12 15L12 17L11 17L11 18L10 18L10 19L11 19L11 21L10 21L10 22L13 22L13 23L12 23L12 25L15 25L15 26L18 26L18 27L17 27L17 28L18 28L18 27L19 27L19 28L20 28L20 27L21 27L21 28L23 28L23 27L22 27L22 26L27 26L27 25L22 25L22 26L18 26L18 25L20 25L20 24L19 24L19 23L17 23L17 22L18 22L18 21L19 21L19 22L20 22L20 20L21 20L21 19L22 19L22 20L23 20L23 19L24 19L24 18L22 18L22 17L25 17L25 16L24 16L24 15L22 15L22 14L21 14L21 13L20 13L20 14L19 14L19 13L14 13L14 12L15 12L15 11L14 11L14 12L13 12L13 13L12 13L12 11L13 11L13 10L12 10L12 9L11 9L11 8ZM27 8L27 9L28 9L28 10L27 10L27 11L28 11L28 10L29 10L29 9L28 9L28 8ZM2 9L2 11L1 11L1 12L2 12L2 13L1 13L1 14L2 14L2 13L3 13L3 15L4 15L4 13L3 13L3 9ZM4 9L4 10L5 10L5 9ZM6 9L6 10L7 10L7 9ZM10 9L10 11L11 11L11 9ZM20 9L20 10L22 10L22 9ZM23 9L23 10L24 10L24 9ZM17 11L17 12L18 12L18 11ZM9 12L9 13L11 13L11 12ZM23 13L23 14L24 14L24 13ZM15 14L15 15L14 15L14 16L15 16L15 17L12 17L12 18L13 18L13 19L12 19L12 21L13 21L13 20L14 20L14 21L18 21L18 20L20 20L20 19L19 19L19 18L20 18L20 16L21 16L21 17L22 17L22 16L21 16L21 14L20 14L20 16L19 16L19 17L18 17L18 16L15 16L15 15L17 15L17 14ZM18 14L18 15L19 15L19 14ZM1 16L1 17L0 17L0 21L1 21L1 18L2 18L2 19L4 19L4 17L3 17L3 18L2 18L2 16ZM15 17L15 18L18 18L18 17ZM14 19L14 20L16 20L16 19ZM17 19L17 20L18 20L18 19ZM2 20L2 21L4 21L4 20ZM21 21L21 24L24 24L24 21ZM25 21L25 24L27 24L27 22L28 22L28 21ZM15 22L15 23L14 23L14 24L15 24L15 25L18 25L18 24L15 24L15 23L16 23L16 22ZM22 22L22 23L23 23L23 22ZM10 23L10 24L9 24L9 25L10 25L10 24L11 24L11 23ZM9 26L9 27L10 27L10 26ZM14 27L14 28L15 28L15 27ZM0 0L0 7L7 7L7 0ZM1 1L1 6L6 6L6 1ZM2 2L2 5L5 5L5 2ZM22 0L22 7L29 7L29 0ZM23 1L23 6L28 6L28 1ZM24 2L24 5L27 5L27 2ZM0 22L0 29L7 29L7 22ZM1 23L1 28L6 28L6 23ZM2 24L2 27L5 27L5 24Z" fill="#000000"/></g></g></svg>
