<?xml version="1.0" encoding="UTF-8"?>
<svg xmlns="http://www.w3.org/2000/svg" version="1.1" width="300" height="300" viewBox="0 0 300 300"><rect x="0" y="0" width="300" height="300" fill="#ffffff"/><g transform="scale(10.345)"><g transform="translate(0,0)"><path fill-rule="evenodd" d="M10 0L10 2L11 2L11 0ZM12 0L12 1L13 1L13 2L12 2L12 4L13 4L13 3L14 3L14 4L17 4L17 5L15 5L15 6L14 6L14 8L15 8L15 9L12 9L12 7L13 7L13 5L11 5L11 6L10 6L10 4L11 4L11 3L8 3L8 4L9 4L9 5L8 5L8 7L9 7L9 8L6 8L6 9L5 9L5 8L0 8L0 9L1 9L1 10L3 10L3 11L4 11L4 9L5 9L5 10L6 10L6 11L5 11L5 13L4 13L4 12L3 12L3 13L4 13L4 15L3 15L3 14L2 14L2 13L1 13L1 14L2 14L2 15L0 15L0 16L1 16L1 17L0 17L0 21L1 21L1 18L2 18L2 15L3 15L3 16L4 16L4 17L3 17L3 20L2 20L2 21L3 21L3 20L4 20L4 21L7 21L7 20L8 20L8 23L10 23L10 24L11 24L11 25L9 25L9 24L8 24L8 29L10 29L10 28L11 28L11 27L10 27L10 26L11 26L11 25L12 25L12 26L13 26L13 27L12 27L12 29L13 29L13 28L14 28L14 29L19 29L19 28L21 28L21 29L22 29L22 28L23 28L23 29L24 29L24 28L25 28L25 26L26 26L26 25L27 25L27 28L26 28L26 29L27 29L27 28L28 28L28 26L29 26L29 25L27 25L27 24L28 24L28 22L29 22L29 20L26 20L26 19L25 19L25 18L26 18L26 17L28 17L28 18L27 18L27 19L28 19L28 18L29 18L29 17L28 17L28 16L25 16L25 15L26 15L26 14L25 14L25 13L22 13L22 12L26 12L26 13L28 13L28 14L27 14L27 15L28 15L28 14L29 14L29 12L28 12L28 10L29 10L29 9L28 9L28 8L27 8L27 9L26 9L26 8L25 8L25 9L24 9L24 8L23 8L23 9L22 9L22 8L21 8L21 6L20 6L20 7L19 7L19 6L18 6L18 7L19 7L19 8L17 8L17 9L16 9L16 7L17 7L17 5L20 5L20 4L21 4L21 3L20 3L20 2L21 2L21 1L20 1L20 0L19 0L19 1L18 1L18 0L17 0L17 1L18 1L18 2L19 2L19 3L17 3L17 2L16 2L16 0L15 0L15 1L14 1L14 0ZM8 1L8 2L9 2L9 1ZM19 1L19 2L20 2L20 1ZM14 2L14 3L16 3L16 2ZM19 3L19 4L20 4L20 3ZM9 6L9 7L10 7L10 6ZM11 6L11 7L12 7L12 6ZM15 6L15 7L16 7L16 6ZM10 8L10 9L8 9L8 10L7 10L7 9L6 9L6 10L7 10L7 11L6 11L6 12L8 12L8 13L9 13L9 12L11 12L11 13L10 13L10 14L9 14L9 15L8 15L8 17L6 17L6 16L7 16L7 15L6 15L6 14L7 14L7 13L5 13L5 15L6 15L6 16L5 16L5 17L4 17L4 20L5 20L5 18L8 18L8 20L11 20L11 21L10 21L10 23L11 23L11 22L13 22L13 23L12 23L12 25L15 25L15 26L16 26L16 25L17 25L17 26L18 26L18 27L16 27L16 28L19 28L19 26L20 26L20 27L22 27L22 26L23 26L23 27L24 27L24 26L25 26L25 25L26 25L26 24L27 24L27 22L28 22L28 21L26 21L26 20L25 20L25 19L24 19L24 17L25 17L25 16L24 16L24 15L25 15L25 14L24 14L24 15L22 15L22 14L21 14L21 13L20 13L20 14L18 14L18 13L19 13L19 12L21 12L21 11L24 11L24 9L23 9L23 10L22 10L22 9L21 9L21 8L19 8L19 9L17 9L17 10L16 10L16 9L15 9L15 10L16 10L16 11L17 11L17 12L18 12L18 13L14 13L14 12L15 12L15 11L14 11L14 12L13 12L13 13L12 13L12 11L13 11L13 10L12 10L12 9L11 9L11 8ZM10 9L10 11L11 11L11 9ZM19 9L19 10L18 10L18 11L19 11L19 10L21 10L21 9ZM25 9L25 10L26 10L26 12L27 12L27 10L28 10L28 9L27 9L27 10L26 10L26 9ZM8 10L8 11L9 11L9 10ZM10 14L10 15L11 15L11 16L10 16L10 17L9 17L9 18L10 18L10 19L11 19L11 18L10 18L10 17L12 17L12 18L13 18L13 19L12 19L12 21L13 21L13 20L14 20L14 21L18 21L18 23L19 23L19 24L17 24L17 23L16 23L16 22L15 22L15 23L14 23L14 24L15 24L15 25L16 25L16 24L17 24L17 25L19 25L19 24L20 24L20 25L21 25L21 26L22 26L22 25L23 25L23 26L24 26L24 25L25 25L25 24L26 24L26 22L25 22L25 20L22 20L22 19L21 19L21 18L20 18L20 16L21 16L21 17L22 17L22 18L23 18L23 17L24 17L24 16L23 16L23 17L22 17L22 16L21 16L21 14L20 14L20 16L19 16L19 15L18 15L18 14L15 14L15 15L14 15L14 16L15 16L15 17L12 17L12 15L13 15L13 14ZM16 15L16 16L18 16L18 15ZM15 17L15 18L18 18L18 19L14 19L14 20L18 20L18 21L19 21L19 22L20 22L20 20L21 20L21 19L20 19L20 18L19 18L19 17ZM6 19L6 20L7 20L7 19ZM19 19L19 20L20 20L20 19ZM21 21L21 24L24 24L24 21ZM22 22L22 23L23 23L23 22ZM9 27L9 28L10 28L10 27ZM14 27L14 28L15 28L15 27ZM0 0L0 7L7 7L7 0ZM1 1L1 6L6 6L6 1ZM2 2L2 5L5 5L5 2ZM22 0L22 7L29 7L29 0ZM23 1L23 6L28 6L28 1ZM24 2L24 5L27 5L27 2ZM0 22L0 29L7 29L7 22ZM1 23L1 28L6 28L6 23ZM2 24L2 27L5 27L5 24Z" fill="#000000"/></g></g></svg>
