<?xml version="1.0" encoding="UTF-8"?>
<svg xmlns="http://www.w3.org/2000/svg" version="1.1" width="300" height="300" viewBox="0 0 300 300"><rect x="0" y="0" width="300" height="300" fill="#ffffff"/><g transform="scale(10.345)"><g transform="translate(0,0)"><path fill-rule="evenodd" d="M10 0L10 2L11 2L11 0ZM12 0L12 1L13 1L13 2L12 2L12 4L13 4L13 3L14 3L14 4L15 4L15 3L16 3L16 4L17 4L17 5L15 5L15 6L14 6L14 8L16 8L16 9L19 9L19 10L17 10L17 11L16 11L16 10L15 10L15 9L12 9L12 7L13 7L13 5L11 5L11 6L10 6L10 4L11 4L11 3L8 3L8 4L9 4L9 5L8 5L8 7L9 7L9 8L6 8L6 9L8 9L8 10L5 10L5 11L3 11L3 10L0 10L0 13L4 13L4 14L3 14L3 16L2 16L2 15L1 15L1 14L0 14L0 15L1 15L1 17L0 17L0 21L1 21L1 17L3 17L3 19L2 19L2 20L4 20L4 21L7 21L7 20L5 20L5 16L6 16L6 17L8 17L8 18L6 18L6 19L8 19L8 18L9 18L9 15L8 15L8 14L10 14L10 21L11 21L11 17L12 17L12 18L13 18L13 19L12 19L12 21L13 21L13 20L14 20L14 21L19 21L19 22L15 22L15 23L14 23L14 24L15 24L15 25L12 25L12 23L13 23L13 22L10 22L10 23L11 23L11 24L8 24L8 29L11 29L11 28L10 28L10 26L9 26L9 25L12 25L12 26L13 26L13 27L12 27L12 29L13 29L13 28L14 28L14 29L19 29L19 28L21 28L21 27L23 27L23 29L24 29L24 28L25 28L25 27L27 27L27 28L26 28L26 29L27 29L27 28L28 28L28 26L29 26L29 25L27 25L27 24L28 24L28 22L29 22L29 20L25 20L25 19L28 19L28 18L29 18L29 17L28 17L28 18L26 18L26 17L27 17L27 16L25 16L25 14L26 14L26 13L28 13L28 14L27 14L27 15L28 15L28 14L29 14L29 13L28 13L28 12L25 12L25 11L24 11L24 12L25 12L25 13L22 13L22 11L21 11L21 12L17 12L17 11L19 11L19 10L26 10L26 11L28 11L28 10L29 10L29 9L28 9L28 8L27 8L27 9L28 9L28 10L26 10L26 8L25 8L25 9L24 9L24 8L23 8L23 9L22 9L22 8L21 8L21 9L19 9L19 8L20 8L20 7L21 7L21 6L20 6L20 7L19 7L19 6L18 6L18 7L19 7L19 8L16 8L16 7L17 7L17 5L20 5L20 4L21 4L21 3L20 3L20 4L19 4L19 3L16 3L16 0L15 0L15 1L14 1L14 0ZM18 0L18 1L17 1L17 2L19 2L19 1L20 1L20 2L21 2L21 0ZM8 1L8 2L9 2L9 1ZM14 2L14 3L15 3L15 2ZM9 6L9 7L10 7L10 6ZM11 6L11 7L12 7L12 6ZM15 6L15 7L16 7L16 6ZM0 8L0 9L5 9L5 8ZM10 8L10 9L9 9L9 11L5 11L5 12L4 12L4 13L5 13L5 14L4 14L4 15L5 15L5 14L8 14L8 13L9 13L9 12L11 12L11 13L10 13L10 14L13 14L13 15L12 15L12 17L15 17L15 18L16 18L16 19L14 19L14 20L19 20L19 21L20 21L20 20L19 20L19 19L20 19L20 18L21 18L21 19L22 19L22 20L24 20L24 19L23 19L23 18L24 18L24 17L25 17L25 16L24 16L24 17L23 17L23 15L22 15L22 14L21 14L21 13L20 13L20 14L19 14L19 13L14 13L14 12L16 12L16 11L14 11L14 12L13 12L13 13L12 13L12 11L13 11L13 10L12 10L12 9L11 9L11 8ZM10 9L10 11L11 11L11 9ZM6 12L6 13L7 13L7 12ZM15 14L15 15L14 15L14 16L15 16L15 17L17 17L17 18L18 18L18 19L19 19L19 18L20 18L20 16L21 16L21 17L22 17L22 18L23 18L23 17L22 17L22 16L21 16L21 14L20 14L20 16L17 16L17 14ZM6 15L6 16L7 16L7 15ZM15 15L15 16L16 16L16 15ZM18 17L18 18L19 18L19 17ZM8 21L8 23L9 23L9 21ZM21 21L21 24L24 24L24 21ZM26 21L26 22L25 22L25 23L26 23L26 24L25 24L25 25L24 25L24 26L23 26L23 25L20 25L20 23L19 23L19 24L18 24L18 23L17 23L17 24L18 24L18 25L15 25L15 26L16 26L16 27L14 27L14 28L19 28L19 26L18 26L18 25L20 25L20 27L21 27L21 26L23 26L23 27L24 27L24 26L27 26L27 25L26 25L26 24L27 24L27 22L28 22L28 21ZM22 22L22 23L23 23L23 22ZM15 23L15 24L16 24L16 23ZM0 0L0 7L7 7L7 0ZM1 1L1 6L6 6L6 1ZM2 2L2 5L5 5L5 2ZM22 0L22 7L29 7L29 0ZM23 1L23 6L28 6L28 1ZM24 2L24 5L27 5L27 2ZM0 22L0 29L7 29L7 22ZM1 23L1 28L6 28L6 23ZM2 24L2 27L5 27L5 24Z" fill="#000000"/></g></g></svg>
