<?xml version="1.0" encoding="UTF-8"?>
<svg xmlns="http://www.w3.org/2000/svg" version="1.1" width="300" height="300" viewBox="0 0 300 300"><rect x="0" y="0" width="300" height="300" fill="#ffffff"/><g transform="scale(10.345)"><g transform="translate(0,0)"><path fill-rule="evenodd" d="M10 0L10 2L11 2L11 0ZM12 0L12 1L13 1L13 2L12 2L12 4L13 4L13 3L14 3L14 4L15 4L15 3L16 3L16 4L17 4L17 5L15 5L15 6L14 6L14 8L15 8L15 9L12 9L12 7L13 7L13 5L11 5L11 6L10 6L10 4L11 4L11 3L8 3L8 4L9 4L9 5L8 5L8 7L9 7L9 8L6 8L6 9L5 9L5 8L0 8L0 10L1 10L1 11L4 11L4 10L3 10L3 9L5 9L5 10L6 10L6 11L7 11L7 10L6 10L6 9L10 9L10 11L11 11L11 9L12 9L12 10L13 10L13 11L12 11L12 13L13 13L13 12L14 12L14 13L17 13L17 14L18 14L18 16L17 16L17 15L16 15L16 14L15 14L15 15L14 15L14 16L15 16L15 17L12 17L12 15L13 15L13 14L11 14L11 15L10 15L10 17L9 17L9 14L10 14L10 13L11 13L11 12L9 12L9 10L8 10L8 12L4 12L4 13L2 13L2 12L0 12L0 14L1 14L1 15L4 15L4 14L5 14L5 16L4 16L4 17L3 17L3 16L1 16L1 17L0 17L0 21L1 21L1 18L2 18L2 21L3 21L3 19L4 19L4 20L5 20L5 19L4 19L4 17L7 17L7 18L6 18L6 19L7 19L7 20L6 20L6 21L8 21L8 23L10 23L10 25L9 25L9 24L8 24L8 29L10 29L10 28L11 28L11 26L10 26L10 25L12 25L12 26L13 26L13 27L12 27L12 29L13 29L13 28L14 28L14 29L19 29L19 28L21 28L21 29L22 29L22 28L23 28L23 29L24 29L24 28L25 28L25 26L26 26L26 27L27 27L27 28L26 28L26 29L27 29L27 28L28 28L28 26L29 26L29 25L27 25L27 24L28 24L28 22L29 22L29 20L25 20L25 18L26 18L26 17L28 17L28 18L27 18L27 19L28 19L28 18L29 18L29 16L28 16L28 14L29 14L29 13L28 13L28 12L29 12L29 11L28 11L28 10L29 10L29 9L28 9L28 8L27 8L27 9L28 9L28 10L27 10L27 11L28 11L28 12L25 12L25 11L22 11L22 10L23 10L23 9L24 9L24 10L26 10L26 8L25 8L25 9L24 9L24 8L23 8L23 9L22 9L22 8L21 8L21 4L19 4L19 1L20 1L20 3L21 3L21 0L18 0L18 1L16 1L16 0L15 0L15 1L14 1L14 0ZM8 1L8 2L9 2L9 1ZM14 2L14 3L15 3L15 2ZM16 2L16 3L18 3L18 2ZM17 5L17 7L16 7L16 6L15 6L15 7L16 7L16 9L15 9L15 10L16 10L16 9L17 9L17 12L18 12L18 11L20 11L20 12L19 12L19 13L18 13L18 14L19 14L19 16L18 16L18 17L15 17L15 18L17 18L17 19L14 19L14 20L13 20L13 21L12 21L12 19L13 19L13 18L12 18L12 17L11 17L11 21L9 21L9 22L13 22L13 23L12 23L12 25L15 25L15 26L16 26L16 27L14 27L14 28L19 28L19 27L22 27L22 26L23 26L23 27L24 27L24 26L25 26L25 25L26 25L26 26L27 26L27 25L26 25L26 24L27 24L27 22L28 22L28 21L27 21L27 22L26 22L26 21L25 21L25 22L26 22L26 24L25 24L25 25L24 25L24 26L23 26L23 25L22 25L22 26L21 26L21 25L20 25L20 23L19 23L19 21L17 21L17 20L21 20L21 19L22 19L22 20L23 20L23 18L22 18L22 17L26 17L26 16L27 16L27 15L26 15L26 14L28 14L28 13L26 13L26 14L25 14L25 15L26 15L26 16L23 16L23 15L24 15L24 14L23 14L23 15L22 15L22 14L21 14L21 16L20 16L20 14L19 14L19 13L21 13L21 12L22 12L22 13L25 13L25 12L22 12L22 11L21 11L21 10L22 10L22 9L21 9L21 8L20 8L20 5ZM9 6L9 7L10 7L10 6ZM11 6L11 7L12 7L12 6ZM18 6L18 7L19 7L19 6ZM10 8L10 9L11 9L11 8ZM17 8L17 9L19 9L19 10L21 10L21 9L19 9L19 8ZM14 11L14 12L16 12L16 11ZM8 12L8 13L9 13L9 12ZM6 13L6 14L7 14L7 15L6 15L6 16L7 16L7 17L8 17L8 14L7 14L7 13ZM15 15L15 16L16 16L16 15ZM19 16L19 17L18 17L18 18L20 18L20 19L21 19L21 18L20 18L20 16ZM21 16L21 17L22 17L22 16ZM2 17L2 18L3 18L3 17ZM8 18L8 20L10 20L10 19L9 19L9 18ZM14 20L14 21L16 21L16 22L15 22L15 23L14 23L14 24L15 24L15 25L19 25L19 24L15 24L15 23L16 23L16 22L17 22L17 21L16 21L16 20ZM21 21L21 24L24 24L24 21ZM22 22L22 23L23 23L23 22ZM9 26L9 28L10 28L10 26ZM17 26L17 27L18 27L18 26ZM0 0L0 7L7 7L7 0ZM1 1L1 6L6 6L6 1ZM2 2L2 5L5 5L5 2ZM22 0L22 7L29 7L29 0ZM23 1L23 6L28 6L28 1ZM24 2L24 5L27 5L27 2ZM0 22L0 29L7 29L7 22ZM1 23L1 28L6 28L6 23ZM2 24L2 27L5 27L5 24Z" fill="#000000"/></g></g></svg>
