<?xml version="1.0" encoding="UTF-8"?>
<svg xmlns="http://www.w3.org/2000/svg" version="1.1" width="300" height="300" viewBox="0 0 300 300"><rect x="0" y="0" width="300" height="300" fill="#ffffff"/><g transform="scale(10.345)"><g transform="translate(0,0)"><path fill-rule="evenodd" d="M10 0L10 2L11 2L11 0ZM12 0L12 1L13 1L13 2L12 2L12 4L13 4L13 3L14 3L14 4L16 4L16 5L15 5L15 6L14 6L14 8L15 8L15 9L12 9L12 7L13 7L13 5L11 5L11 6L10 6L10 4L11 4L11 3L8 3L8 4L9 4L9 5L8 5L8 7L9 7L9 8L6 8L6 9L5 9L5 8L0 8L0 12L1 12L1 13L2 13L2 14L1 14L1 15L0 15L0 16L1 16L1 17L0 17L0 21L1 21L1 17L2 17L2 15L3 15L3 13L4 13L4 14L5 14L5 13L7 13L7 14L6 14L6 15L5 15L5 16L6 16L6 17L7 17L7 18L6 18L6 19L7 19L7 20L6 20L6 21L8 21L8 23L9 23L9 24L8 24L8 29L9 29L9 26L10 26L10 28L11 28L11 25L12 25L12 26L13 26L13 27L12 27L12 29L13 29L13 28L14 28L14 29L19 29L19 28L21 28L21 29L24 29L24 28L25 28L25 27L27 27L27 28L26 28L26 29L27 29L27 28L28 28L28 26L29 26L29 25L27 25L27 24L28 24L28 22L29 22L29 20L25 20L25 19L27 19L27 18L29 18L29 17L27 17L27 16L29 16L29 15L28 15L28 14L29 14L29 12L26 12L26 10L25 10L25 9L26 9L26 8L25 8L25 9L24 9L24 8L23 8L23 9L22 9L22 8L21 8L21 4L19 4L19 3L20 3L20 2L21 2L21 1L20 1L20 0L19 0L19 1L20 1L20 2L18 2L18 3L17 3L17 1L16 1L16 0L15 0L15 1L14 1L14 0ZM8 1L8 2L9 2L9 1ZM14 2L14 3L15 3L15 2ZM16 3L16 4L17 4L17 3ZM16 5L16 6L15 6L15 8L18 8L18 9L15 9L15 10L16 10L16 11L14 11L14 12L13 12L13 13L12 13L12 11L13 11L13 10L12 10L12 9L11 9L11 8L10 8L10 9L9 9L9 10L8 10L8 9L6 9L6 10L7 10L7 11L4 11L4 9L3 9L3 11L4 11L4 12L7 12L7 13L9 13L9 12L11 12L11 13L10 13L10 14L9 14L9 15L8 15L8 16L7 16L7 15L6 15L6 16L7 16L7 17L11 17L11 18L10 18L10 19L9 19L9 21L10 21L10 24L11 24L11 22L13 22L13 23L12 23L12 25L15 25L15 26L16 26L16 27L14 27L14 28L16 28L16 27L17 27L17 28L19 28L19 27L20 27L20 26L21 26L21 28L23 28L23 27L24 27L24 26L25 26L25 25L24 25L24 26L23 26L23 25L22 25L22 26L21 26L21 25L20 25L20 23L19 23L19 24L18 24L18 22L19 22L19 21L20 21L20 20L19 20L19 21L18 21L18 22L17 22L17 21L14 21L14 20L15 20L15 19L14 19L14 20L13 20L13 21L12 21L12 19L13 19L13 18L12 18L12 17L15 17L15 18L19 18L19 19L20 19L20 18L21 18L21 19L22 19L22 20L24 20L24 17L25 17L25 16L27 16L27 14L28 14L28 13L26 13L26 12L24 12L24 11L25 11L25 10L24 10L24 9L23 9L23 10L22 10L22 9L21 9L21 8L20 8L20 5ZM9 6L9 7L10 7L10 6ZM11 6L11 7L12 7L12 6ZM16 6L16 7L17 7L17 6ZM18 6L18 7L19 7L19 6ZM27 8L27 9L28 9L28 10L27 10L27 11L28 11L28 10L29 10L29 9L28 9L28 8ZM10 9L10 11L11 11L11 9ZM18 9L18 10L20 10L20 11L21 11L21 12L19 12L19 13L18 13L18 12L17 12L17 13L16 13L16 12L14 12L14 13L16 13L16 14L15 14L15 15L14 15L14 16L15 16L15 17L19 17L19 18L20 18L20 16L21 16L21 17L22 17L22 18L23 18L23 17L24 17L24 16L25 16L25 15L26 15L26 13L24 13L24 12L23 12L23 11L22 11L22 10L21 10L21 9ZM1 10L1 12L2 12L2 13L3 13L3 12L2 12L2 10ZM7 11L7 12L8 12L8 11ZM22 12L22 13L23 13L23 15L22 15L22 14L21 14L21 13L20 13L20 14L19 14L19 15L17 15L17 14L18 14L18 13L17 13L17 14L16 14L16 15L15 15L15 16L20 16L20 14L21 14L21 16L22 16L22 17L23 17L23 15L25 15L25 14L24 14L24 13L23 13L23 12ZM10 14L10 16L11 16L11 17L12 17L12 15L13 15L13 14ZM3 16L3 20L4 20L4 21L5 21L5 17L4 17L4 16ZM26 17L26 18L27 18L27 17ZM7 18L7 19L8 19L8 18ZM10 19L10 20L11 20L11 19ZM17 19L17 20L18 20L18 19ZM21 21L21 24L24 24L24 21ZM25 21L25 24L27 24L27 22L28 22L28 21L27 21L27 22L26 22L26 21ZM15 22L15 23L14 23L14 24L15 24L15 25L16 25L16 26L17 26L17 25L18 25L18 26L20 26L20 25L18 25L18 24L17 24L17 25L16 25L16 24L15 24L15 23L17 23L17 22ZM22 22L22 23L23 23L23 22ZM26 25L26 26L27 26L27 25ZM22 26L22 27L23 27L23 26ZM0 0L0 7L7 7L7 0ZM1 1L1 6L6 6L6 1ZM2 2L2 5L5 5L5 2ZM22 0L22 7L29 7L29 0ZM23 1L23 6L28 6L28 1ZM24 2L24 5L27 5L27 2ZM0 22L0 29L7 29L7 22ZM1 23L1 28L6 28L6 23ZM2 24L2 27L5 27L5 24Z" fill="#000000"/></g></g></svg>
