<?xml version="1.0" encoding="UTF-8"?>
<svg xmlns="http://www.w3.org/2000/svg" version="1.1" width="300" height="300" viewBox="0 0 300 300"><rect x="0" y="0" width="300" height="300" fill="#ffffff"/><g transform="scale(10.345)"><g transform="translate(0,0)"><path fill-rule="evenodd" d="M10 0L10 2L11 2L11 0ZM12 0L12 1L13 1L13 2L12 2L12 4L13 4L13 3L14 3L14 4L17 4L17 5L20 5L20 7L21 7L21 4L19 4L19 3L20 3L20 2L19 2L19 3L17 3L17 2L18 2L18 1L17 1L17 2L16 2L16 0L15 0L15 1L14 1L14 0ZM19 0L19 1L20 1L20 0ZM8 1L8 2L9 2L9 1ZM14 2L14 3L16 3L16 2ZM8 3L8 4L9 4L9 5L8 5L8 7L9 7L9 8L6 8L6 9L8 9L8 10L9 10L9 9L10 9L10 11L11 11L11 9L12 9L12 10L13 10L13 11L12 11L12 13L13 13L13 12L14 12L14 13L18 13L18 14L15 14L15 15L14 15L14 16L15 16L15 17L12 17L12 15L13 15L13 14L8 14L8 15L7 15L7 14L6 14L6 13L7 13L7 12L8 12L8 13L11 13L11 12L8 12L8 11L7 11L7 10L5 10L5 8L0 8L0 10L1 10L1 11L0 11L0 12L1 12L1 13L2 13L2 15L1 15L1 14L0 14L0 15L1 15L1 16L2 16L2 15L3 15L3 14L4 14L4 15L5 15L5 17L8 17L8 18L6 18L6 19L8 19L8 18L9 18L9 21L8 21L8 23L9 23L9 24L8 24L8 29L9 29L9 28L11 28L11 27L10 27L10 26L9 26L9 25L10 25L10 24L11 24L11 25L12 25L12 26L13 26L13 27L12 27L12 29L13 29L13 28L14 28L14 29L20 29L20 28L21 28L21 29L24 29L24 28L25 28L25 27L26 27L26 26L21 26L21 25L27 25L27 28L26 28L26 29L27 29L27 28L28 28L28 26L29 26L29 25L27 25L27 24L28 24L28 23L27 23L27 22L29 22L29 21L28 21L28 20L25 20L25 19L24 19L24 18L26 18L26 19L28 19L28 18L29 18L29 17L28 17L28 16L29 16L29 15L28 15L28 14L29 14L29 13L28 13L28 12L29 12L29 11L28 11L28 10L29 10L29 9L28 9L28 8L27 8L27 9L26 9L26 8L25 8L25 9L24 9L24 8L23 8L23 9L22 9L22 8L21 8L21 9L19 9L19 8L17 8L17 6L16 6L16 5L15 5L15 6L14 6L14 8L15 8L15 9L12 9L12 7L13 7L13 5L11 5L11 6L10 6L10 4L11 4L11 3ZM9 6L9 7L10 7L10 6ZM11 6L11 7L12 7L12 6ZM15 6L15 8L16 8L16 6ZM18 6L18 7L19 7L19 6ZM10 8L10 9L11 9L11 8ZM1 9L1 10L2 10L2 11L1 11L1 12L2 12L2 13L6 13L6 12L7 12L7 11L4 11L4 10L3 10L3 9ZM15 9L15 10L17 10L17 11L16 11L16 12L18 12L18 13L19 13L19 12L22 12L22 13L26 13L26 14L23 14L23 15L22 15L22 14L21 14L21 13L20 13L20 14L19 14L19 16L20 16L20 18L19 18L19 17L15 17L15 18L16 18L16 19L17 19L17 20L16 20L16 21L14 21L14 20L15 20L15 19L14 19L14 20L13 20L13 21L12 21L12 19L13 19L13 18L12 18L12 17L11 17L11 16L10 16L10 15L8 15L8 17L9 17L9 16L10 16L10 18L11 18L11 20L10 20L10 21L9 21L9 22L10 22L10 21L11 21L11 22L13 22L13 23L12 23L12 25L15 25L15 26L16 26L16 25L17 25L17 26L18 26L18 27L16 27L16 28L18 28L18 27L19 27L19 28L20 28L20 27L21 27L21 26L20 26L20 24L19 24L19 23L18 23L18 22L20 22L20 18L21 18L21 19L22 19L22 20L24 20L24 19L23 19L23 18L24 18L24 17L25 17L25 16L28 16L28 15L27 15L27 14L28 14L28 13L26 13L26 12L28 12L28 11L27 11L27 10L28 10L28 9L27 9L27 10L26 10L26 9L25 9L25 10L26 10L26 12L24 12L24 11L23 11L23 10L24 10L24 9L23 9L23 10L22 10L22 9L21 9L21 11L20 11L20 10L19 10L19 9ZM2 11L2 12L3 12L3 11ZM14 11L14 12L15 12L15 11ZM22 11L22 12L23 12L23 11ZM5 14L5 15L6 15L6 16L7 16L7 15L6 15L6 14ZM20 14L20 16L21 16L21 17L22 17L22 18L23 18L23 17L24 17L24 16L25 16L25 15L24 15L24 16L23 16L23 17L22 17L22 16L21 16L21 14ZM17 15L17 16L18 16L18 15ZM3 16L3 17L4 17L4 16ZM0 17L0 21L1 21L1 17ZM26 17L26 18L28 18L28 17ZM2 18L2 20L3 20L3 19L4 19L4 18ZM18 18L18 19L19 19L19 18ZM4 20L4 21L7 21L7 20ZM17 20L17 21L16 21L16 22L15 22L15 23L14 23L14 24L15 24L15 25L16 25L16 24L15 24L15 23L17 23L17 21L19 21L19 20ZM21 21L21 24L24 24L24 21ZM25 21L25 24L27 24L27 23L26 23L26 22L27 22L27 21ZM22 22L22 23L23 23L23 22ZM17 24L17 25L18 25L18 26L19 26L19 27L20 27L20 26L19 26L19 25L18 25L18 24ZM14 27L14 28L15 28L15 27ZM22 27L22 28L23 28L23 27ZM0 0L0 7L7 7L7 0ZM1 1L1 6L6 6L6 1ZM2 2L2 5L5 5L5 2ZM22 0L22 7L29 7L29 0ZM23 1L23 6L28 6L28 1ZM24 2L24 5L27 5L27 2ZM0 22L0 29L7 29L7 22ZM1 23L1 28L6 28L6 23ZM2 24L2 27L5 27L5 24Z" fill="#000000"/></g></g></svg>
