<?xml version="1.0" encoding="UTF-8"?>
<svg xmlns="http://www.w3.org/2000/svg" version="1.1" width="300" height="300" viewBox="0 0 300 300"><rect x="0" y="0" width="300" height="300" fill="#ffffff"/><g transform="scale(10.345)"><g transform="translate(0,0)"><path fill-rule="evenodd" d="M10 0L10 2L11 2L11 0ZM12 0L12 1L13 1L13 2L12 2L12 4L13 4L13 3L14 3L14 4L16 4L16 5L15 5L15 6L14 6L14 8L15 8L15 9L12 9L12 7L13 7L13 5L11 5L11 6L10 6L10 4L11 4L11 3L8 3L8 4L9 4L9 5L8 5L8 7L9 7L9 8L6 8L6 9L10 9L10 11L11 11L11 9L12 9L12 10L13 10L13 11L12 11L12 13L13 13L13 12L14 12L14 13L15 13L15 12L16 12L16 13L18 13L18 14L15 14L15 15L14 15L14 16L15 16L15 17L12 17L12 15L13 15L13 14L9 14L9 13L11 13L11 12L9 12L9 13L8 13L8 16L9 16L9 15L11 15L11 17L10 17L10 18L11 18L11 17L12 17L12 18L13 18L13 19L12 19L12 21L13 21L13 20L14 20L14 21L18 21L18 22L17 22L17 23L16 23L16 22L15 22L15 23L14 23L14 24L15 24L15 25L12 25L12 23L13 23L13 22L11 22L11 21L9 21L9 20L8 20L8 19L9 19L9 17L7 17L7 16L4 16L4 15L3 15L3 14L5 14L5 11L8 11L8 10L5 10L5 8L0 8L0 10L2 10L2 9L4 9L4 10L5 10L5 11L4 11L4 12L3 12L3 13L0 13L0 14L2 14L2 16L4 16L4 17L1 17L1 15L0 15L0 21L1 21L1 18L2 18L2 21L8 21L8 23L9 23L9 24L8 24L8 29L9 29L9 28L10 28L10 29L11 29L11 28L10 28L10 25L9 25L9 24L10 24L10 23L9 23L9 22L11 22L11 25L12 25L12 26L13 26L13 27L12 27L12 29L13 29L13 28L14 28L14 29L15 29L15 28L16 28L16 29L19 29L19 28L21 28L21 27L19 27L19 25L18 25L18 24L19 24L19 23L20 23L20 26L22 26L22 27L23 27L23 28L22 28L22 29L24 29L24 28L25 28L25 27L26 27L26 25L27 25L27 28L26 28L26 29L27 29L27 28L28 28L28 26L29 26L29 25L27 25L27 24L28 24L28 23L27 23L27 22L29 22L29 21L28 21L28 20L25 20L25 19L26 19L26 18L25 18L25 17L22 17L22 16L21 16L21 14L22 14L22 15L23 15L23 16L26 16L26 17L27 17L27 18L29 18L29 17L28 17L28 16L26 16L26 14L25 14L25 13L22 13L22 12L19 12L19 11L18 11L18 10L20 10L20 11L22 11L22 10L23 10L23 12L26 12L26 13L27 13L27 14L29 14L29 13L28 13L28 12L29 12L29 11L28 11L28 10L29 10L29 9L28 9L28 8L27 8L27 9L28 9L28 10L27 10L27 11L28 11L28 12L26 12L26 10L25 10L25 9L26 9L26 8L25 8L25 9L24 9L24 8L23 8L23 9L22 9L22 8L19 8L19 9L18 9L18 8L17 8L17 9L16 9L16 8L15 8L15 6L16 6L16 7L17 7L17 6L16 6L16 5L20 5L20 4L21 4L21 3L20 3L20 2L21 2L21 0L18 0L18 1L16 1L16 0L15 0L15 1L14 1L14 0ZM8 1L8 2L9 2L9 1ZM19 1L19 2L17 2L17 3L16 3L16 4L17 4L17 3L19 3L19 4L20 4L20 3L19 3L19 2L20 2L20 1ZM14 2L14 3L15 3L15 2ZM9 6L9 7L10 7L10 6ZM11 6L11 7L12 7L12 6ZM18 6L18 7L19 7L19 6ZM20 6L20 7L21 7L21 6ZM10 8L10 9L11 9L11 8ZM15 9L15 10L16 10L16 12L18 12L18 13L19 13L19 12L18 12L18 11L17 11L17 10L18 10L18 9L17 9L17 10L16 10L16 9ZM20 9L20 10L22 10L22 9ZM23 9L23 10L24 10L24 9ZM0 11L0 12L1 12L1 11ZM14 11L14 12L15 12L15 11ZM6 12L6 13L7 13L7 12ZM20 13L20 14L19 14L19 16L20 16L20 18L19 18L19 17L15 17L15 18L18 18L18 19L17 19L17 20L18 20L18 21L20 21L20 20L18 20L18 19L20 19L20 18L21 18L21 19L22 19L22 20L24 20L24 18L22 18L22 17L21 17L21 16L20 16L20 14L21 14L21 13ZM6 14L6 15L7 15L7 14ZM23 14L23 15L25 15L25 14ZM15 15L15 16L18 16L18 15ZM5 17L5 20L7 20L7 19L8 19L8 18L7 18L7 17ZM6 18L6 19L7 19L7 18ZM3 19L3 20L4 20L4 19ZM10 19L10 20L11 20L11 19ZM14 19L14 20L16 20L16 19ZM21 21L21 24L24 24L24 21ZM26 21L26 22L27 22L27 21ZM22 22L22 23L23 23L23 22ZM15 23L15 24L16 24L16 23ZM17 23L17 24L18 24L18 23ZM26 23L26 24L25 24L25 25L24 25L24 26L23 26L23 25L22 25L22 26L23 26L23 27L24 27L24 26L25 26L25 25L26 25L26 24L27 24L27 23ZM15 25L15 26L18 26L18 25ZM14 27L14 28L15 28L15 27ZM16 27L16 28L18 28L18 27ZM0 0L0 7L7 7L7 0ZM1 1L1 6L6 6L6 1ZM2 2L2 5L5 5L5 2ZM22 0L22 7L29 7L29 0ZM23 1L23 6L28 6L28 1ZM24 2L24 5L27 5L27 2ZM0 22L0 29L7 29L7 22ZM1 23L1 28L6 28L6 23ZM2 24L2 27L5 27L5 24Z" fill="#000000"/></g></g></svg>
