<?xml version="1.0" encoding="UTF-8"?>
<svg xmlns="http://www.w3.org/2000/svg" version="1.1" width="300" height="300" viewBox="0 0 300 300"><rect x="0" y="0" width="300" height="300" fill="#ffffff"/><g transform="scale(10.345)"><g transform="translate(0,0)"><path fill-rule="evenodd" d="M8 0L8 1L9 1L9 2L10 2L10 3L11 3L11 1L13 1L13 0L11 0L11 1L9 1L9 0ZM14 0L14 1L18 1L18 3L17 3L17 4L18 4L18 5L16 5L16 7L15 7L15 6L14 6L14 7L13 7L13 5L12 5L12 4L13 4L13 2L12 2L12 4L11 4L11 5L10 5L10 4L9 4L9 5L10 5L10 8L9 8L9 6L8 6L8 8L9 8L9 9L8 9L8 10L10 10L10 11L8 11L8 13L9 13L9 14L10 14L10 12L11 12L11 13L13 13L13 14L11 14L11 15L7 15L7 14L6 14L6 13L7 13L7 12L6 12L6 13L5 13L5 11L7 11L7 10L4 10L4 9L5 9L5 8L3 8L3 9L2 9L2 8L0 8L0 9L2 9L2 10L4 10L4 13L3 13L3 11L1 11L1 10L0 10L0 12L2 12L2 13L3 13L3 14L2 14L2 15L1 15L1 14L0 14L0 15L1 15L1 16L2 16L2 15L3 15L3 16L5 16L5 15L7 15L7 16L6 16L6 17L3 17L3 18L2 18L2 17L0 17L0 21L5 21L5 20L6 20L6 21L7 21L7 20L6 20L6 19L7 19L7 18L8 18L8 19L9 19L9 21L8 21L8 22L9 22L9 24L8 24L8 26L9 26L9 25L11 25L11 23L10 23L10 22L11 22L11 21L10 21L10 19L12 19L12 21L14 21L14 24L13 24L13 25L12 25L12 26L13 26L13 25L15 25L15 26L14 26L14 27L12 27L12 28L9 28L9 27L8 27L8 29L13 29L13 28L15 28L15 29L17 29L17 27L18 27L18 29L19 29L19 28L20 28L20 29L21 29L21 28L25 28L25 26L26 26L26 28L27 28L27 27L28 27L28 28L29 28L29 23L28 23L28 26L27 26L27 25L25 25L25 23L27 23L27 21L29 21L29 18L28 18L28 16L29 16L29 12L28 12L28 16L27 16L27 15L26 15L26 14L27 14L27 13L26 13L26 11L27 11L27 9L26 9L26 10L25 10L25 9L24 9L24 11L21 11L21 10L22 10L22 9L23 9L23 8L22 8L22 9L21 9L21 4L19 4L19 2L21 2L21 0L20 0L20 1L18 1L18 0ZM14 4L14 5L15 5L15 4ZM11 5L11 7L12 7L12 9L10 9L10 10L12 10L12 11L13 11L13 10L12 10L12 9L13 9L13 7L12 7L12 5ZM18 5L18 6L17 6L17 7L16 7L16 9L17 9L17 10L16 10L16 11L15 11L15 7L14 7L14 13L15 13L15 12L16 12L16 14L18 14L18 13L19 13L19 14L21 14L21 15L17 15L17 17L18 17L18 19L15 19L15 18L12 18L12 19L13 19L13 20L14 20L14 19L15 19L15 20L16 20L16 21L17 21L17 23L18 23L18 21L19 21L19 22L20 22L20 21L19 21L19 20L18 20L18 19L19 19L19 17L18 17L18 16L21 16L21 15L23 15L23 16L22 16L22 18L21 18L21 17L20 17L20 20L24 20L24 19L26 19L26 18L27 18L27 16L25 16L25 15L23 15L23 14L22 14L22 13L19 13L19 11L20 11L20 12L21 12L21 11L20 11L20 10L19 10L19 9L20 9L20 8L19 8L19 7L20 7L20 5ZM18 6L18 7L19 7L19 6ZM6 8L6 9L7 9L7 8ZM17 8L17 9L19 9L19 8ZM28 8L28 9L29 9L29 8ZM16 11L16 12L18 12L18 11ZM24 12L24 13L25 13L25 14L26 14L26 13L25 13L25 12ZM4 13L4 14L3 14L3 15L4 15L4 14L5 14L5 13ZM14 14L14 15L12 15L12 16L11 16L11 17L9 17L9 16L8 16L8 18L9 18L9 19L10 19L10 18L11 18L11 17L14 17L14 16L16 16L16 15L15 15L15 14ZM6 17L6 18L7 18L7 17ZM23 17L23 18L22 18L22 19L24 19L24 18L26 18L26 17ZM3 18L3 19L2 19L2 20L4 20L4 19L5 19L5 18ZM27 19L27 20L28 20L28 19ZM17 20L17 21L18 21L18 20ZM25 20L25 22L26 22L26 20ZM9 21L9 22L10 22L10 21ZM21 21L21 24L24 24L24 21ZM12 22L12 23L13 23L13 22ZM22 22L22 23L23 23L23 22ZM16 24L16 26L19 26L19 27L20 27L20 28L21 28L21 26L19 26L19 25L18 25L18 24ZM22 25L22 27L24 27L24 26L25 26L25 25L24 25L24 26L23 26L23 25ZM10 26L10 27L11 27L11 26ZM15 27L15 28L16 28L16 27ZM0 0L0 7L7 7L7 0ZM1 1L1 6L6 6L6 1ZM2 2L2 5L5 5L5 2ZM22 0L22 7L29 7L29 0ZM23 1L23 6L28 6L28 1ZM24 2L24 5L27 5L27 2ZM0 22L0 29L7 29L7 22ZM1 23L1 28L6 28L6 23ZM2 24L2 27L5 27L5 24Z" fill="#000000"/></g></g></svg>
