<?xml version="1.0" encoding="UTF-8"?>
<svg xmlns="http://www.w3.org/2000/svg" version="1.1" width="300" height="300" viewBox="0 0 300 300"><rect x="0" y="0" width="300" height="300" fill="#ffffff"/><g transform="scale(10.345)"><g transform="translate(0,0)"><path fill-rule="evenodd" d="M8 0L8 1L9 1L9 2L10 2L10 3L11 3L11 1L13 1L13 0L11 0L11 1L9 1L9 0ZM14 0L14 1L16 1L16 2L15 2L15 3L16 3L16 7L15 7L15 6L14 6L14 7L13 7L13 5L12 5L12 4L13 4L13 2L12 2L12 4L11 4L11 5L10 5L10 4L9 4L9 5L10 5L10 8L9 8L9 6L8 6L8 8L9 8L9 9L8 9L8 10L5 10L5 8L3 8L3 10L2 10L2 11L1 11L1 12L0 12L0 13L1 13L1 12L2 12L2 13L3 13L3 12L4 12L4 14L3 14L3 16L4 16L4 17L5 17L5 16L4 16L4 15L7 15L7 14L9 14L9 13L10 13L10 12L11 12L11 13L13 13L13 14L10 14L10 15L8 15L8 16L6 16L6 17L8 17L8 16L12 16L12 15L14 15L14 14L15 14L15 15L16 15L16 13L14 13L14 7L15 7L15 11L16 11L16 12L18 12L18 13L17 13L17 14L18 14L18 15L21 15L21 16L18 16L18 17L19 17L19 18L16 18L16 16L14 16L14 17L9 17L9 19L8 19L8 18L6 18L6 19L5 19L5 18L3 18L3 17L2 17L2 14L1 14L1 15L0 15L0 21L2 21L2 20L3 20L3 21L4 21L4 20L6 20L6 21L7 21L7 20L6 20L6 19L8 19L8 22L9 22L9 24L8 24L8 26L9 26L9 27L8 27L8 29L9 29L9 27L10 27L10 29L13 29L13 28L15 28L15 27L16 27L16 29L17 29L17 27L18 27L18 29L19 29L19 28L20 28L20 29L23 29L23 28L25 28L25 26L27 26L27 27L26 27L26 28L27 28L27 27L28 27L28 28L29 28L29 23L28 23L28 26L27 26L27 25L26 25L26 23L27 23L27 21L29 21L29 18L28 18L28 17L27 17L27 18L26 18L26 16L28 16L28 15L29 15L29 11L28 11L28 9L29 9L29 8L28 8L28 9L26 9L26 10L25 10L25 9L24 9L24 11L22 11L22 12L20 12L20 11L21 11L21 10L22 10L22 9L23 9L23 8L22 8L22 9L21 9L21 4L19 4L19 3L20 3L20 1L19 1L19 0ZM17 1L17 3L19 3L19 2L18 2L18 1ZM14 4L14 5L15 5L15 4ZM17 4L17 5L18 5L18 6L17 6L17 8L16 8L16 9L17 9L17 10L18 10L18 12L19 12L19 11L20 11L20 10L18 10L18 9L19 9L19 7L20 7L20 5L18 5L18 4ZM11 5L11 7L12 7L12 9L10 9L10 10L9 10L9 11L10 11L10 10L12 10L12 11L13 11L13 10L12 10L12 9L13 9L13 7L12 7L12 5ZM18 6L18 7L19 7L19 6ZM0 8L0 10L1 10L1 9L2 9L2 8ZM6 8L6 9L7 9L7 8ZM17 8L17 9L18 9L18 8ZM4 10L4 12L5 12L5 10ZM26 10L26 13L25 13L25 11L24 11L24 12L23 12L23 14L22 14L22 13L18 13L18 14L21 14L21 15L23 15L23 16L22 16L22 18L21 18L21 17L20 17L20 18L21 18L21 20L23 20L23 19L22 19L22 18L23 18L23 17L25 17L25 16L26 16L26 15L25 15L25 16L24 16L24 13L25 13L25 14L26 14L26 13L27 13L27 15L28 15L28 12L27 12L27 10ZM6 11L6 12L7 12L7 13L6 13L6 14L7 14L7 13L8 13L8 12L7 12L7 11ZM10 18L10 19L11 19L11 21L10 21L10 20L9 20L9 21L10 21L10 22L11 22L11 28L12 28L12 27L14 27L14 26L15 26L15 25L13 25L13 24L14 24L14 21L12 21L12 19L13 19L13 20L14 20L14 19L15 19L15 18L12 18L12 19L11 19L11 18ZM25 18L25 20L26 20L26 18ZM16 19L16 21L17 21L17 22L16 22L16 23L15 23L15 24L16 24L16 27L17 27L17 26L18 26L18 27L19 27L19 25L18 25L18 24L17 24L17 22L18 22L18 23L19 23L19 24L20 24L20 23L19 23L19 21L17 21L17 20L20 20L20 19ZM27 19L27 20L28 20L28 19ZM21 21L21 24L24 24L24 21ZM25 21L25 22L26 22L26 21ZM12 22L12 23L13 23L13 22ZM22 22L22 23L23 23L23 22ZM9 24L9 25L10 25L10 24ZM12 25L12 26L13 26L13 25ZM22 25L22 27L21 27L21 26L20 26L20 28L22 28L22 27L23 27L23 26L25 26L25 25ZM0 0L0 7L7 7L7 0ZM1 1L1 6L6 6L6 1ZM2 2L2 5L5 5L5 2ZM22 0L22 7L29 7L29 0ZM23 1L23 6L28 6L28 1ZM24 2L24 5L27 5L27 2ZM0 22L0 29L7 29L7 22ZM1 23L1 28L6 28L6 23ZM2 24L2 27L5 27L5 24Z" fill="#000000"/></g></g></svg>
