<?xml version="1.0" encoding="UTF-8"?>
<svg xmlns="http://www.w3.org/2000/svg" version="1.1" width="300" height="300" viewBox="0 0 300 300"><rect x="0" y="0" width="300" height="300" fill="#ffffff"/><g transform="scale(10.345)"><g transform="translate(0,0)"><path fill-rule="evenodd" d="M10 0L10 2L11 2L11 0ZM12 0L12 1L13 1L13 2L12 2L12 4L13 4L13 3L14 3L14 4L16 4L16 5L15 5L15 6L14 6L14 8L15 8L15 9L12 9L12 7L13 7L13 5L11 5L11 6L10 6L10 4L11 4L11 3L8 3L8 4L9 4L9 5L8 5L8 7L9 7L9 8L6 8L6 9L8 9L8 10L9 10L9 9L10 9L10 11L11 11L11 9L12 9L12 10L13 10L13 11L12 11L12 13L13 13L13 12L14 12L14 13L16 13L16 14L15 14L15 15L14 15L14 16L16 16L16 17L17 17L17 18L18 18L18 19L19 19L19 18L20 18L20 19L21 19L21 20L17 20L17 19L16 19L16 18L15 18L15 17L12 17L12 15L13 15L13 14L11 14L11 17L12 17L12 18L13 18L13 19L12 19L12 21L13 21L13 20L14 20L14 21L16 21L16 22L15 22L15 23L14 23L14 24L15 24L15 25L12 25L12 23L13 23L13 22L10 22L10 24L8 24L8 29L9 29L9 28L10 28L10 26L11 26L11 25L12 25L12 26L13 26L13 27L12 27L12 29L13 29L13 28L14 28L14 29L16 29L16 28L17 28L17 29L18 29L18 28L17 28L17 27L19 27L19 26L21 26L21 27L20 27L20 28L19 28L19 29L20 29L20 28L21 28L21 29L24 29L24 28L25 28L25 27L26 27L26 25L27 25L27 28L26 28L26 29L27 29L27 28L28 28L28 26L29 26L29 25L27 25L27 24L28 24L28 23L27 23L27 22L29 22L29 21L28 21L28 20L29 20L29 19L27 19L27 20L25 20L25 19L24 19L24 20L22 20L22 19L21 19L21 18L20 18L20 16L21 16L21 17L22 17L22 18L26 18L26 17L27 17L27 18L29 18L29 17L27 17L27 16L25 16L25 15L24 15L24 14L26 14L26 15L27 15L27 14L29 14L29 13L28 13L28 12L29 12L29 11L28 11L28 10L29 10L29 9L28 9L28 8L27 8L27 9L26 9L26 8L25 8L25 9L24 9L24 8L23 8L23 9L22 9L22 8L21 8L21 9L18 9L18 8L17 8L17 5L20 5L20 7L19 7L19 6L18 6L18 7L19 7L19 8L20 8L20 7L21 7L21 5L20 5L20 4L21 4L21 3L20 3L20 2L18 2L18 1L17 1L17 2L16 2L16 0L15 0L15 1L14 1L14 0ZM19 0L19 1L20 1L20 0ZM8 1L8 2L9 2L9 1ZM14 2L14 3L15 3L15 2ZM17 2L17 3L16 3L16 4L17 4L17 3L18 3L18 2ZM19 3L19 4L20 4L20 3ZM9 6L9 7L10 7L10 6ZM11 6L11 7L12 7L12 6ZM15 6L15 7L16 7L16 6ZM0 8L0 11L2 11L2 13L0 13L0 15L1 15L1 16L2 16L2 15L3 15L3 17L0 17L0 21L1 21L1 18L2 18L2 19L3 19L3 20L2 20L2 21L4 21L4 19L5 19L5 21L7 21L7 20L6 20L6 19L7 19L7 18L8 18L8 16L10 16L10 14L9 14L9 13L11 13L11 12L8 12L8 11L7 11L7 10L6 10L6 11L5 11L5 10L3 10L3 11L2 11L2 10L1 10L1 9L5 9L5 8ZM10 8L10 9L11 9L11 8ZM15 9L15 10L16 10L16 11L17 11L17 12L16 12L16 13L17 13L17 15L16 15L16 16L20 16L20 14L19 14L19 15L18 15L18 13L21 13L21 12L22 12L22 13L23 13L23 14L24 14L24 13L26 13L26 14L27 14L27 13L26 13L26 12L27 12L27 10L28 10L28 9L27 9L27 10L26 10L26 9L25 9L25 10L24 10L24 9L23 9L23 10L22 10L22 9L21 9L21 10L22 10L22 11L20 11L20 10L18 10L18 9ZM3 11L3 13L2 13L2 14L1 14L1 15L2 15L2 14L3 14L3 15L4 15L4 11ZM6 11L6 12L5 12L5 13L6 13L6 14L5 14L5 16L4 16L4 17L5 17L5 16L8 16L8 15L9 15L9 14L8 14L8 13L6 13L6 12L7 12L7 11ZM14 11L14 12L15 12L15 11ZM24 11L24 12L23 12L23 13L24 13L24 12L26 12L26 11ZM17 12L17 13L18 13L18 12ZM6 14L6 15L7 15L7 14ZM21 14L21 16L22 16L22 17L25 17L25 16L24 16L24 15L22 15L22 14ZM6 17L6 18L5 18L5 19L6 19L6 18L7 18L7 17ZM18 17L18 18L19 18L19 17ZM9 18L9 19L8 19L8 23L9 23L9 21L11 21L11 20L10 20L10 18ZM14 19L14 20L16 20L16 21L17 21L17 24L16 24L16 25L15 25L15 26L16 26L16 27L14 27L14 28L16 28L16 27L17 27L17 26L18 26L18 25L20 25L20 23L19 23L19 21L17 21L17 20L16 20L16 19ZM21 21L21 24L24 24L24 21ZM26 21L26 22L25 22L25 23L26 23L26 24L25 24L25 25L24 25L24 26L23 26L23 25L21 25L21 26L23 26L23 27L21 27L21 28L23 28L23 27L24 27L24 26L25 26L25 25L26 25L26 24L27 24L27 23L26 23L26 22L27 22L27 21ZM22 22L22 23L23 23L23 22ZM18 23L18 24L17 24L17 25L16 25L16 26L17 26L17 25L18 25L18 24L19 24L19 23ZM10 24L10 25L11 25L11 24ZM0 0L0 7L7 7L7 0ZM1 1L1 6L6 6L6 1ZM2 2L2 5L5 5L5 2ZM22 0L22 7L29 7L29 0ZM23 1L23 6L28 6L28 1ZM24 2L24 5L27 5L27 2ZM0 22L0 29L7 29L7 22ZM1 23L1 28L6 28L6 23ZM2 24L2 27L5 27L5 24Z" fill="#000000"/></g></g></svg>
