<?xml version="1.0" encoding="UTF-8"?>
<svg xmlns="http://www.w3.org/2000/svg" version="1.1" width="300" height="300" viewBox="0 0 300 300"><rect x="0" y="0" width="300" height="300" fill="#ffffff"/><g transform="scale(10.345)"><g transform="translate(0,0)"><path fill-rule="evenodd" d="M10 0L10 2L11 2L11 0ZM12 0L12 1L13 1L13 2L12 2L12 4L13 4L13 3L14 3L14 4L16 4L16 5L15 5L15 6L14 6L14 8L15 8L15 9L12 9L12 7L13 7L13 5L11 5L11 6L10 6L10 4L11 4L11 3L8 3L8 4L9 4L9 5L8 5L8 7L9 7L9 8L6 8L6 9L5 9L5 8L0 8L0 9L1 9L1 10L2 10L2 9L5 9L5 10L6 10L6 11L5 11L5 12L2 12L2 13L1 13L1 14L0 14L0 15L1 15L1 16L2 16L2 15L3 15L3 16L4 16L4 17L5 17L5 18L3 18L3 17L2 17L2 18L3 18L3 19L2 19L2 20L3 20L3 21L7 21L7 20L8 20L8 18L9 18L9 21L8 21L8 23L9 23L9 24L8 24L8 29L9 29L9 27L10 27L10 25L12 25L12 26L13 26L13 27L12 27L12 29L13 29L13 28L14 28L14 29L15 29L15 28L16 28L16 29L19 29L19 28L22 28L22 29L24 29L24 28L25 28L25 26L26 26L26 27L27 27L27 28L26 28L26 29L27 29L27 28L28 28L28 26L29 26L29 25L27 25L27 24L28 24L28 23L27 23L27 24L25 24L25 23L26 23L26 21L27 21L27 22L29 22L29 21L28 21L28 20L29 20L29 19L28 19L28 20L25 20L25 19L27 19L27 18L29 18L29 17L28 17L28 16L26 16L26 15L25 15L25 13L26 13L26 14L27 14L27 15L28 15L28 14L29 14L29 13L28 13L28 12L29 12L29 11L27 11L27 12L25 12L25 11L26 11L26 10L25 10L25 9L26 9L26 8L25 8L25 9L24 9L24 8L23 8L23 9L22 9L22 8L21 8L21 5L20 5L20 4L21 4L21 3L20 3L20 4L19 4L19 3L17 3L17 4L16 4L16 3L14 3L14 2L17 2L17 1L18 1L18 2L19 2L19 1L20 1L20 2L21 2L21 1L20 1L20 0L19 0L19 1L18 1L18 0L17 0L17 1L16 1L16 0L15 0L15 1L14 1L14 0ZM8 1L8 2L9 2L9 1ZM16 5L16 6L15 6L15 7L16 7L16 6L17 6L17 8L16 8L16 9L15 9L15 10L16 10L16 11L17 11L17 12L16 12L16 13L14 13L14 12L15 12L15 11L14 11L14 12L13 12L13 13L12 13L12 11L13 11L13 10L12 10L12 9L11 9L11 8L10 8L10 9L6 9L6 10L7 10L7 11L6 11L6 12L8 12L8 13L9 13L9 15L8 15L8 14L7 14L7 13L5 13L5 14L7 14L7 15L4 15L4 16L5 16L5 17L6 17L6 18L8 18L8 17L9 17L9 18L10 18L10 17L9 17L9 15L10 15L10 16L11 16L11 14L13 14L13 15L12 15L12 17L11 17L11 19L10 19L10 20L11 20L11 22L13 22L13 23L12 23L12 25L15 25L15 26L17 26L17 27L16 27L16 28L19 28L19 27L20 27L20 26L23 26L23 27L22 27L22 28L23 28L23 27L24 27L24 26L25 26L25 25L24 25L24 26L23 26L23 25L20 25L20 23L19 23L19 21L14 21L14 20L21 20L21 19L22 19L22 20L23 20L23 19L25 19L25 18L27 18L27 17L26 17L26 16L25 16L25 15L22 15L22 14L21 14L21 13L20 13L20 14L19 14L19 13L18 13L18 14L17 14L17 15L15 15L15 14L16 14L16 13L17 13L17 12L18 12L18 10L19 10L19 12L21 12L21 11L20 11L20 10L22 10L22 13L23 13L23 14L24 14L24 13L25 13L25 12L24 12L24 11L23 11L23 10L24 10L24 9L23 9L23 10L22 10L22 9L20 9L20 8L19 8L19 7L20 7L20 5ZM9 6L9 7L10 7L10 6ZM11 6L11 7L12 7L12 6ZM18 6L18 7L19 7L19 6ZM17 8L17 9L16 9L16 10L18 10L18 9L19 9L19 10L20 10L20 9L19 9L19 8ZM27 8L27 10L29 10L29 9L28 9L28 8ZM10 9L10 11L11 11L11 9ZM3 10L3 11L4 11L4 10ZM8 10L8 12L9 12L9 13L11 13L11 12L9 12L9 10ZM23 12L23 13L24 13L24 12ZM3 13L3 14L4 14L4 13ZM27 13L27 14L28 14L28 13ZM1 14L1 15L2 15L2 14ZM18 14L18 15L19 15L19 14ZM20 14L20 16L17 16L17 17L16 17L16 16L15 16L15 15L14 15L14 16L15 16L15 17L12 17L12 18L13 18L13 19L12 19L12 21L13 21L13 20L14 20L14 19L16 19L16 18L18 18L18 19L19 19L19 18L20 18L20 16L21 16L21 17L22 17L22 18L23 18L23 17L24 17L24 18L25 18L25 17L24 17L24 16L23 16L23 17L22 17L22 16L21 16L21 14ZM7 15L7 16L6 16L6 17L7 17L7 16L8 16L8 15ZM0 17L0 21L1 21L1 17ZM15 17L15 18L16 18L16 17ZM18 17L18 18L19 18L19 17ZM3 19L3 20L5 20L5 19ZM6 19L6 20L7 20L7 19ZM21 21L21 24L24 24L24 21ZM15 22L15 23L14 23L14 24L15 24L15 25L19 25L19 24L16 24L16 22ZM22 22L22 23L23 23L23 22ZM10 23L10 24L11 24L11 23ZM26 25L26 26L27 26L27 25ZM18 26L18 27L19 27L19 26ZM14 27L14 28L15 28L15 27ZM0 0L0 7L7 7L7 0ZM1 1L1 6L6 6L6 1ZM2 2L2 5L5 5L5 2ZM22 0L22 7L29 7L29 0ZM23 1L23 6L28 6L28 1ZM24 2L24 5L27 5L27 2ZM0 22L0 29L7 29L7 22ZM1 23L1 28L6 28L6 23ZM2 24L2 27L5 27L5 24Z" fill="#000000"/></g></g></svg>
