<?xml version="1.0" encoding="UTF-8"?>
<svg xmlns="http://www.w3.org/2000/svg" version="1.1" width="300" height="300" viewBox="0 0 300 300"><rect x="0" y="0" width="300" height="300" fill="#ffffff"/><g transform="scale(10.345)"><g transform="translate(0,0)"><path fill-rule="evenodd" d="M9 0L9 1L8 1L8 3L9 3L9 4L8 4L8 8L6 8L6 9L4 9L4 8L3 8L3 10L2 10L2 11L3 11L3 12L4 12L4 13L2 13L2 12L0 12L0 13L1 13L1 14L0 14L0 15L1 15L1 14L2 14L2 15L3 15L3 14L5 14L5 16L6 16L6 17L7 17L7 18L5 18L5 17L4 17L4 18L5 18L5 19L2 19L2 21L3 21L3 20L5 20L5 21L8 21L8 23L9 23L9 24L10 24L10 26L9 26L9 25L8 25L8 26L9 26L9 27L8 27L8 29L9 29L9 28L12 28L12 29L14 29L14 28L12 28L12 24L14 24L14 25L13 25L13 27L15 27L15 25L16 25L16 29L19 29L19 28L20 28L20 29L22 29L22 28L21 28L21 27L20 27L20 26L19 26L19 24L20 24L20 25L22 25L22 26L23 26L23 27L25 27L25 29L26 29L26 27L27 27L27 29L28 29L28 27L29 27L29 26L28 26L28 25L29 25L29 24L28 24L28 22L29 22L29 20L28 20L28 21L27 21L27 20L26 20L26 19L29 19L29 17L26 17L26 19L25 19L25 18L24 18L24 19L25 19L25 20L23 20L23 17L24 17L24 16L26 16L26 15L29 15L29 14L28 14L28 13L29 13L29 12L28 12L28 11L27 11L27 10L26 10L26 9L28 9L28 10L29 10L29 9L28 9L28 8L26 8L26 9L25 9L25 8L22 8L22 9L21 9L21 8L20 8L20 7L21 7L21 6L20 6L20 5L19 5L19 4L20 4L20 3L21 3L21 0L19 0L19 1L20 1L20 3L19 3L19 2L16 2L16 1L17 1L17 0L16 0L16 1L15 1L15 0L12 0L12 1L11 1L11 2L9 2L9 1L10 1L10 0ZM14 2L14 3L15 3L15 2ZM12 3L12 4L9 4L9 5L10 5L10 6L9 6L9 7L10 7L10 8L8 8L8 9L9 9L9 10L8 10L8 11L6 11L6 10L7 10L7 9L6 9L6 10L5 10L5 11L6 11L6 12L8 12L8 13L9 13L9 14L10 14L10 15L11 15L11 16L8 16L8 14L7 14L7 13L6 13L6 14L7 14L7 15L6 15L6 16L8 16L8 18L7 18L7 19L5 19L5 20L8 20L8 19L10 19L10 18L11 18L11 19L12 19L12 20L13 20L13 21L14 21L14 22L15 22L15 23L14 23L14 24L15 24L15 23L16 23L16 25L17 25L17 26L18 26L18 25L17 25L17 24L18 24L18 20L17 20L17 19L16 19L16 18L18 18L18 17L13 17L13 16L12 16L12 14L10 14L10 13L12 13L12 12L13 12L13 15L16 15L16 16L17 16L17 14L16 14L16 13L17 13L17 12L18 12L18 14L19 14L19 15L20 15L20 14L21 14L21 13L22 13L22 15L21 15L21 18L22 18L22 17L23 17L23 13L22 13L22 12L23 12L23 10L25 10L25 11L24 11L24 14L25 14L25 15L26 15L26 14L27 14L27 12L26 12L26 10L25 10L25 9L23 9L23 10L22 10L22 12L20 12L20 14L19 14L19 11L18 11L18 10L17 10L17 9L18 9L18 8L14 8L14 6L13 6L13 3ZM16 3L16 4L19 4L19 3ZM11 5L11 6L10 6L10 7L11 7L11 6L12 6L12 8L13 8L13 6L12 6L12 5ZM16 5L16 6L15 6L15 7L16 7L16 6L17 6L17 7L18 7L18 5ZM19 6L19 7L20 7L20 6ZM0 8L0 10L1 10L1 9L2 9L2 8ZM10 8L10 10L9 10L9 11L8 11L8 12L9 12L9 11L11 11L11 10L12 10L12 9L11 9L11 8ZM19 8L19 10L20 10L20 11L21 11L21 9L20 9L20 8ZM14 9L14 10L15 10L15 9ZM3 10L3 11L4 11L4 10ZM14 11L14 12L16 12L16 11ZM25 13L25 14L26 14L26 13ZM0 16L0 17L1 17L1 16ZM11 16L11 17L12 17L12 16ZM19 16L19 20L21 20L21 19L20 19L20 16ZM2 17L2 18L3 18L3 17ZM0 18L0 19L1 19L1 18ZM13 18L13 20L14 20L14 21L15 21L15 20L16 20L16 22L17 22L17 20L16 20L16 19L15 19L15 20L14 20L14 18ZM0 20L0 21L1 21L1 20ZM9 20L9 23L10 23L10 24L11 24L11 23L10 23L10 22L11 22L11 21L10 21L10 20ZM25 20L25 21L26 21L26 22L25 22L25 23L27 23L27 21L26 21L26 20ZM19 21L19 23L20 23L20 21ZM21 21L21 24L24 24L24 21ZM22 22L22 23L23 23L23 22ZM26 24L26 26L25 26L25 27L26 27L26 26L27 26L27 27L28 27L28 26L27 26L27 24ZM23 25L23 26L24 26L24 25ZM10 26L10 27L11 27L11 26ZM23 28L23 29L24 29L24 28ZM0 0L0 7L7 7L7 0ZM1 1L1 6L6 6L6 1ZM2 2L2 5L5 5L5 2ZM22 0L22 7L29 7L29 0ZM23 1L23 6L28 6L28 1ZM24 2L24 5L27 5L27 2ZM0 22L0 29L7 29L7 22ZM1 23L1 28L6 28L6 23ZM2 24L2 27L5 27L5 24Z" fill="#000000"/></g></g></svg>
