<?xml version="1.0" encoding="UTF-8"?>
<svg xmlns="http://www.w3.org/2000/svg" version="1.1" width="300" height="300" viewBox="0 0 300 300"><rect x="0" y="0" width="300" height="300" fill="#ffffff"/><g transform="scale(10.345)"><g transform="translate(0,0)"><path fill-rule="evenodd" d="M10 0L10 2L11 2L11 0ZM12 0L12 1L13 1L13 2L12 2L12 4L13 4L13 3L14 3L14 4L16 4L16 5L15 5L15 6L14 6L14 8L15 8L15 9L12 9L12 7L13 7L13 5L11 5L11 6L10 6L10 4L11 4L11 3L8 3L8 4L9 4L9 5L8 5L8 7L9 7L9 8L6 8L6 9L10 9L10 11L11 11L11 9L12 9L12 10L13 10L13 11L12 11L12 13L13 13L13 12L14 12L14 13L15 13L15 12L16 12L16 13L18 13L18 14L20 14L20 16L19 16L19 17L18 17L18 16L16 16L16 14L15 14L15 15L14 15L14 16L16 16L16 17L18 17L18 19L19 19L19 18L20 18L20 16L21 16L21 17L22 17L22 18L23 18L23 17L24 17L24 18L25 18L25 19L23 19L23 20L22 20L22 19L21 19L21 20L17 20L17 21L16 21L16 20L14 20L14 19L16 19L16 18L15 18L15 17L12 17L12 15L13 15L13 14L10 14L10 13L11 13L11 12L8 12L8 13L7 13L7 12L6 12L6 11L8 11L8 10L6 10L6 11L5 11L5 10L4 10L4 11L5 11L5 12L1 12L1 10L0 10L0 12L1 12L1 13L0 13L0 14L1 14L1 13L2 13L2 14L3 14L3 15L2 15L2 16L3 16L3 15L4 15L4 17L1 17L1 16L0 16L0 21L1 21L1 18L3 18L3 19L2 19L2 21L4 21L4 20L6 20L6 21L7 21L7 20L8 20L8 23L9 23L9 22L10 22L10 21L11 21L11 19L10 19L10 18L9 18L9 17L12 17L12 18L13 18L13 19L12 19L12 21L13 21L13 20L14 20L14 21L16 21L16 22L15 22L15 23L14 23L14 24L15 24L15 25L12 25L12 23L13 23L13 22L11 22L11 23L10 23L10 24L11 24L11 25L12 25L12 26L13 26L13 27L12 27L12 29L13 29L13 28L14 28L14 29L19 29L19 28L21 28L21 29L24 29L24 28L25 28L25 27L27 27L27 28L26 28L26 29L27 29L27 28L28 28L28 26L29 26L29 25L27 25L27 24L28 24L28 23L27 23L27 22L29 22L29 21L28 21L28 20L29 20L29 19L28 19L28 20L26 20L26 18L25 18L25 17L24 17L24 16L26 16L26 17L27 17L27 18L29 18L29 17L27 17L27 16L29 16L29 15L28 15L28 14L29 14L29 13L28 13L28 14L27 14L27 16L26 16L26 15L23 15L23 14L26 14L26 13L27 13L27 12L25 12L25 11L26 11L26 8L25 8L25 9L24 9L24 8L23 8L23 9L22 9L22 8L20 8L20 7L21 7L21 6L20 6L20 7L19 7L19 6L18 6L18 7L19 7L19 8L17 8L17 6L16 6L16 5L21 5L21 4L19 4L19 3L21 3L21 2L19 2L19 3L17 3L17 4L16 4L16 2L17 2L17 1L16 1L16 0L15 0L15 1L14 1L14 0ZM19 0L19 1L20 1L20 0ZM8 1L8 2L9 2L9 1ZM14 2L14 3L15 3L15 2ZM9 6L9 7L10 7L10 6ZM11 6L11 7L12 7L12 6ZM15 6L15 7L16 7L16 6ZM0 8L0 9L2 9L2 11L3 11L3 9L5 9L5 8ZM10 8L10 9L11 9L11 8ZM16 8L16 9L15 9L15 10L16 10L16 12L18 12L18 13L19 13L19 12L22 12L22 13L25 13L25 12L23 12L23 11L25 11L25 10L24 10L24 9L23 9L23 10L22 10L22 9L20 9L20 8L19 8L19 9L17 9L17 8ZM27 8L27 9L28 9L28 10L27 10L27 11L28 11L28 10L29 10L29 9L28 9L28 8ZM16 9L16 10L17 10L17 11L18 11L18 10L17 10L17 9ZM19 9L19 10L20 10L20 9ZM21 10L21 11L22 11L22 10ZM14 11L14 12L15 12L15 11ZM3 13L3 14L4 14L4 15L5 15L5 16L8 16L8 15L9 15L9 16L11 16L11 15L10 15L10 14L8 14L8 15L6 15L6 14L7 14L7 13L6 13L6 14L4 14L4 13ZM20 13L20 14L21 14L21 16L22 16L22 17L23 17L23 15L22 15L22 14L21 14L21 13ZM4 17L4 19L3 19L3 20L4 20L4 19L6 19L6 20L7 20L7 19L6 19L6 18L8 18L8 19L9 19L9 18L8 18L8 17L6 17L6 18L5 18L5 17ZM9 20L9 21L10 21L10 20ZM25 20L25 22L27 22L27 21L26 21L26 20ZM17 21L17 23L16 23L16 25L15 25L15 26L16 26L16 27L14 27L14 28L18 28L18 27L21 27L21 26L23 26L23 27L22 27L22 28L23 28L23 27L24 27L24 26L27 26L27 25L24 25L24 26L23 26L23 25L21 25L21 26L19 26L19 25L20 25L20 23L19 23L19 21ZM21 21L21 24L24 24L24 21ZM22 22L22 23L23 23L23 22ZM18 23L18 24L17 24L17 25L16 25L16 26L17 26L17 25L19 25L19 23ZM25 23L25 24L27 24L27 23ZM8 24L8 29L11 29L11 27L10 27L10 26L9 26L9 24ZM0 0L0 7L7 7L7 0ZM1 1L1 6L6 6L6 1ZM2 2L2 5L5 5L5 2ZM22 0L22 7L29 7L29 0ZM23 1L23 6L28 6L28 1ZM24 2L24 5L27 5L27 2ZM0 22L0 29L7 29L7 22ZM1 23L1 28L6 28L6 23ZM2 24L2 27L5 27L5 24Z" fill="#000000"/></g></g></svg>
