<?xml version="1.0" encoding="UTF-8"?>
<svg xmlns="http://www.w3.org/2000/svg" version="1.1" width="300" height="300" viewBox="0 0 300 300"><rect x="0" y="0" width="300" height="300" fill="#ffffff"/><g transform="scale(10.345)"><g transform="translate(0,0)"><path fill-rule="evenodd" d="M10 0L10 2L11 2L11 0ZM12 0L12 1L13 1L13 2L12 2L12 4L13 4L13 3L14 3L14 4L17 4L17 5L15 5L15 6L14 6L14 8L15 8L15 9L12 9L12 7L13 7L13 5L11 5L11 6L10 6L10 4L11 4L11 3L8 3L8 4L9 4L9 5L8 5L8 7L9 7L9 8L6 8L6 9L5 9L5 8L0 8L0 9L1 9L1 10L0 10L0 11L1 11L1 10L2 10L2 11L3 11L3 10L2 10L2 9L4 9L4 13L7 13L7 14L6 14L6 15L7 15L7 14L8 14L8 11L9 11L9 10L8 10L8 9L10 9L10 11L11 11L11 9L12 9L12 10L13 10L13 11L12 11L12 13L13 13L13 12L14 12L14 13L19 13L19 14L15 14L15 15L14 15L14 16L15 16L15 17L12 17L12 15L13 15L13 14L11 14L11 15L10 15L10 16L9 16L9 17L8 17L8 16L5 16L5 14L3 14L3 13L2 13L2 14L0 14L0 16L1 16L1 17L0 17L0 21L1 21L1 18L2 18L2 19L4 19L4 21L5 21L5 20L6 20L6 21L8 21L8 23L9 23L9 24L8 24L8 29L9 29L9 25L12 25L12 26L13 26L13 27L12 27L12 29L13 29L13 28L14 28L14 29L16 29L16 27L18 27L18 28L17 28L17 29L18 29L18 28L19 28L19 29L20 29L20 28L21 28L21 29L22 29L22 27L23 27L23 29L24 29L24 28L25 28L25 26L24 26L24 25L27 25L27 26L26 26L26 27L27 27L27 28L26 28L26 29L27 29L27 28L28 28L28 26L29 26L29 25L27 25L27 24L28 24L28 23L27 23L27 24L25 24L25 23L26 23L26 22L25 22L25 20L26 20L26 21L27 21L27 22L29 22L29 21L27 21L27 20L28 20L28 18L29 18L29 16L25 16L25 13L26 13L26 14L27 14L27 15L28 15L28 14L29 14L29 13L28 13L28 12L29 12L29 11L28 11L28 10L29 10L29 9L28 9L28 8L27 8L27 9L28 9L28 10L26 10L26 11L28 11L28 12L25 12L25 11L23 11L23 13L22 13L22 12L21 12L21 13L19 13L19 12L20 12L20 11L18 11L18 10L15 10L15 9L19 9L19 10L25 10L25 9L26 9L26 8L25 8L25 9L24 9L24 8L23 8L23 9L22 9L22 8L21 8L21 9L19 9L19 8L20 8L20 7L21 7L21 4L19 4L19 2L18 2L18 1L16 1L16 0L15 0L15 1L14 1L14 0ZM19 0L19 1L20 1L20 3L21 3L21 1L20 1L20 0ZM8 1L8 2L9 2L9 1ZM14 2L14 3L15 3L15 2ZM16 2L16 3L18 3L18 2ZM17 5L17 8L19 8L19 7L20 7L20 5ZM9 6L9 7L10 7L10 6ZM11 6L11 7L12 7L12 6ZM15 6L15 7L16 7L16 6ZM18 6L18 7L19 7L19 6ZM10 8L10 9L11 9L11 8ZM6 9L6 10L5 10L5 11L6 11L6 12L7 12L7 11L8 11L8 10L7 10L7 9ZM6 10L6 11L7 11L7 10ZM14 11L14 12L15 12L15 11ZM16 11L16 12L18 12L18 11ZM0 12L0 13L1 13L1 12ZM9 12L9 14L10 14L10 13L11 13L11 12ZM24 12L24 13L23 13L23 14L24 14L24 13L25 13L25 12ZM27 13L27 14L28 14L28 13ZM2 14L2 15L3 15L3 14ZM19 14L19 15L16 15L16 16L18 16L18 17L15 17L15 18L16 18L16 19L14 19L14 20L13 20L13 21L12 21L12 19L13 19L13 18L12 18L12 17L10 17L10 19L11 19L11 20L8 20L8 21L9 21L9 22L13 22L13 23L12 23L12 25L15 25L15 26L16 26L16 25L17 25L17 26L20 26L20 27L19 27L19 28L20 28L20 27L22 27L22 26L23 26L23 27L24 27L24 26L23 26L23 25L22 25L22 26L20 26L20 24L19 24L19 22L20 22L20 18L21 18L21 19L22 19L22 20L24 20L24 19L25 19L25 18L24 18L24 17L25 17L25 16L24 16L24 15L22 15L22 14L21 14L21 16L20 16L20 14ZM2 16L2 17L4 17L4 16ZM19 16L19 17L18 17L18 19L19 19L19 18L20 18L20 16ZM21 16L21 17L22 17L22 18L23 18L23 17L24 17L24 16L23 16L23 17L22 17L22 16ZM6 17L6 18L7 18L7 17ZM26 17L26 18L28 18L28 17ZM4 18L4 19L5 19L5 18ZM8 18L8 19L9 19L9 18ZM6 19L6 20L7 20L7 19ZM26 19L26 20L27 20L27 19ZM14 20L14 21L16 21L16 22L15 22L15 23L14 23L14 24L15 24L15 25L16 25L16 24L17 24L17 25L19 25L19 24L17 24L17 21L18 21L18 22L19 22L19 21L18 21L18 20L17 20L17 21L16 21L16 20ZM21 21L21 24L24 24L24 21ZM22 22L22 23L23 23L23 22ZM14 27L14 28L15 28L15 27ZM0 0L0 7L7 7L7 0ZM1 1L1 6L6 6L6 1ZM2 2L2 5L5 5L5 2ZM22 0L22 7L29 7L29 0ZM23 1L23 6L28 6L28 1ZM24 2L24 5L27 5L27 2ZM0 22L0 29L7 29L7 22ZM1 23L1 28L6 28L6 23ZM2 24L2 27L5 27L5 24Z" fill="#000000"/></g></g></svg>
