<?xml version="1.0" encoding="UTF-8"?>
<svg xmlns="http://www.w3.org/2000/svg" version="1.1" width="300" height="300" viewBox="0 0 300 300"><rect x="0" y="0" width="300" height="300" fill="#ffffff"/><g transform="scale(10.345)"><g transform="translate(0,0)"><path fill-rule="evenodd" d="M8 0L8 1L9 1L9 2L8 2L8 5L9 5L9 4L11 4L11 5L10 5L10 10L6 10L6 9L7 9L7 8L6 8L6 9L5 9L5 12L3 12L3 10L4 10L4 8L0 8L0 9L1 9L1 10L2 10L2 12L1 12L1 11L0 11L0 14L1 14L1 16L0 16L0 17L1 17L1 18L0 18L0 19L1 19L1 18L2 18L2 17L3 17L3 18L4 18L4 19L2 19L2 20L1 20L1 21L2 21L2 20L4 20L4 19L5 19L5 21L8 21L8 22L9 22L9 24L10 24L10 25L8 25L8 29L12 29L12 28L14 28L14 27L15 27L15 26L16 26L16 28L17 28L17 26L19 26L19 28L18 28L18 29L19 29L19 28L20 28L20 29L23 29L23 28L24 28L24 29L25 29L25 27L23 27L23 28L22 28L22 27L21 27L21 26L22 26L22 25L24 25L24 26L27 26L27 24L26 24L26 25L25 25L25 23L28 23L28 24L29 24L29 23L28 23L28 22L29 22L29 20L27 20L27 18L26 18L26 16L25 16L25 15L26 15L26 14L27 14L27 16L29 16L29 13L28 13L28 12L29 12L29 11L28 11L28 10L29 10L29 8L28 8L28 9L27 9L27 8L24 8L24 10L26 10L26 11L25 11L25 13L26 13L26 14L24 14L24 12L23 12L23 13L22 13L22 12L20 12L20 11L18 11L18 10L16 10L16 11L18 11L18 12L17 12L17 13L16 13L16 12L14 12L14 14L13 14L13 12L12 12L12 13L11 13L11 11L14 11L14 10L15 10L15 9L14 9L14 8L13 8L13 6L14 6L14 7L15 7L15 8L17 8L17 9L18 9L18 8L19 8L19 10L21 10L21 9L22 9L22 10L23 10L23 9L22 9L22 8L21 8L21 6L20 6L20 5L21 5L21 3L20 3L20 4L19 4L19 2L18 2L18 3L17 3L17 1L16 1L16 0L15 0L15 1L16 1L16 2L15 2L15 3L14 3L14 5L13 5L13 3L12 3L12 4L11 4L11 2L14 2L14 0L12 0L12 1L11 1L11 0L10 0L10 1L9 1L9 0ZM19 0L19 1L20 1L20 0ZM16 3L16 4L17 4L17 7L18 7L18 5L19 5L19 4L17 4L17 3ZM12 5L12 6L11 6L11 8L12 8L12 6L13 6L13 5ZM14 5L14 6L15 6L15 7L16 7L16 5ZM8 6L8 7L9 7L9 6ZM19 6L19 7L20 7L20 6ZM8 8L8 9L9 9L9 8ZM20 8L20 9L21 9L21 8ZM11 9L11 10L12 10L12 9ZM26 9L26 10L27 10L27 9ZM6 11L6 12L8 12L8 13L4 13L4 15L2 15L2 16L1 16L1 17L2 17L2 16L4 16L4 17L5 17L5 19L6 19L6 20L8 20L8 21L10 21L10 20L11 20L11 23L14 23L14 22L15 22L15 24L12 24L12 26L11 26L11 28L12 28L12 26L13 26L13 27L14 27L14 26L15 26L15 24L19 24L19 26L20 26L20 23L19 23L19 22L20 22L20 21L19 21L19 20L20 20L20 18L21 18L21 20L25 20L25 19L26 19L26 18L25 18L25 17L24 17L24 18L23 18L23 16L24 16L24 15L23 15L23 14L22 14L22 13L21 13L21 14L22 14L22 15L21 15L21 17L19 17L19 16L20 16L20 15L18 15L18 14L19 14L19 12L18 12L18 14L17 14L17 19L18 19L18 21L17 21L17 22L16 22L16 19L15 19L15 21L13 21L13 18L14 18L14 15L16 15L16 14L14 14L14 15L13 15L13 14L12 14L12 16L11 16L11 13L9 13L9 12L8 12L8 11ZM26 11L26 12L27 12L27 11ZM27 13L27 14L28 14L28 13ZM5 14L5 15L4 15L4 16L5 16L5 17L8 17L8 18L9 18L9 19L8 19L8 20L10 20L10 18L11 18L11 16L10 16L10 14L8 14L8 15L7 15L7 14ZM6 15L6 16L7 16L7 15ZM9 16L9 17L10 17L10 16ZM12 16L12 17L13 17L13 16ZM15 16L15 17L16 17L16 16ZM18 17L18 18L19 18L19 17ZM21 17L21 18L22 18L22 17ZM6 18L6 19L7 19L7 18ZM24 18L24 19L25 19L25 18ZM11 19L11 20L12 20L12 19ZM21 21L21 24L24 24L24 21ZM26 21L26 22L27 22L27 21ZM22 22L22 23L23 23L23 22ZM13 25L13 26L14 26L14 25ZM16 25L16 26L17 26L17 25ZM28 25L28 27L27 27L27 29L28 29L28 27L29 27L29 25ZM9 26L9 27L10 27L10 26ZM0 0L0 7L7 7L7 0ZM1 1L1 6L6 6L6 1ZM2 2L2 5L5 5L5 2ZM22 0L22 7L29 7L29 0ZM23 1L23 6L28 6L28 1ZM24 2L24 5L27 5L27 2ZM0 22L0 29L7 29L7 22ZM1 23L1 28L6 28L6 23ZM2 24L2 27L5 27L5 24Z" fill="#000000"/></g></g></svg>
