<?xml version="1.0" encoding="UTF-8"?>
<svg xmlns="http://www.w3.org/2000/svg" version="1.1" width="300" height="300" viewBox="0 0 300 300"><rect x="0" y="0" width="300" height="300" fill="#ffffff"/><g transform="scale(10.345)"><g transform="translate(0,0)"><path fill-rule="evenodd" d="M10 0L10 2L11 2L11 0ZM12 0L12 1L13 1L13 2L12 2L12 4L13 4L13 3L14 3L14 4L15 4L15 3L16 3L16 4L17 4L17 5L15 5L15 6L14 6L14 8L15 8L15 9L12 9L12 7L13 7L13 5L11 5L11 6L10 6L10 4L11 4L11 3L8 3L8 4L9 4L9 5L8 5L8 7L9 7L9 8L6 8L6 9L7 9L7 10L5 10L5 8L0 8L0 9L2 9L2 10L1 10L1 11L0 11L0 14L1 14L1 13L3 13L3 12L4 12L4 10L5 10L5 14L6 14L6 15L8 15L8 16L5 16L5 15L4 15L4 14L2 14L2 16L1 16L1 15L0 15L0 16L1 16L1 17L0 17L0 21L1 21L1 17L3 17L3 19L2 19L2 20L3 20L3 21L7 21L7 20L6 20L6 19L8 19L8 23L9 23L9 24L8 24L8 29L9 29L9 27L10 27L10 28L11 28L11 27L10 27L10 26L11 26L11 25L12 25L12 26L13 26L13 27L12 27L12 29L13 29L13 28L14 28L14 29L19 29L19 28L21 28L21 29L22 29L22 28L23 28L23 29L24 29L24 28L25 28L25 26L26 26L26 27L27 27L27 28L26 28L26 29L27 29L27 28L28 28L28 26L29 26L29 25L27 25L27 24L28 24L28 23L27 23L27 24L26 24L26 21L27 21L27 22L29 22L29 21L27 21L27 20L28 20L28 19L27 19L27 18L29 18L29 17L27 17L27 16L25 16L25 15L26 15L26 14L25 14L25 13L28 13L28 14L27 14L27 15L28 15L28 14L29 14L29 13L28 13L28 12L29 12L29 11L28 11L28 10L29 10L29 9L28 9L28 8L27 8L27 9L28 9L28 10L27 10L27 11L28 11L28 12L25 12L25 11L26 11L26 8L25 8L25 9L24 9L24 8L23 8L23 9L22 9L22 8L21 8L21 5L20 5L20 4L21 4L21 2L19 2L19 3L16 3L16 0L15 0L15 1L14 1L14 0ZM19 0L19 1L20 1L20 0ZM8 1L8 2L9 2L9 1ZM17 1L17 2L18 2L18 1ZM14 2L14 3L15 3L15 2ZM19 3L19 4L20 4L20 3ZM17 5L17 8L19 8L19 9L18 9L18 10L17 10L17 9L15 9L15 10L17 10L17 12L22 12L22 13L23 13L23 14L24 14L24 13L25 13L25 12L24 12L24 13L23 13L23 11L24 11L24 10L22 10L22 11L20 11L20 10L21 10L21 9L20 9L20 8L19 8L19 7L20 7L20 5ZM9 6L9 7L10 7L10 6ZM11 6L11 7L12 7L12 6ZM15 6L15 7L16 7L16 6ZM18 6L18 7L19 7L19 6ZM10 8L10 9L8 9L8 10L7 10L7 11L6 11L6 12L7 12L7 13L6 13L6 14L7 14L7 13L8 13L8 11L9 11L9 12L11 12L11 13L9 13L9 14L8 14L8 15L9 15L9 16L8 16L8 17L6 17L6 18L4 18L4 20L5 20L5 19L6 19L6 18L8 18L8 19L9 19L9 18L8 18L8 17L9 17L9 16L10 16L10 14L13 14L13 15L12 15L12 17L10 17L10 20L11 20L11 21L10 21L10 24L11 24L11 22L13 22L13 23L12 23L12 25L15 25L15 26L16 26L16 25L17 25L17 27L16 27L16 28L18 28L18 26L19 26L19 27L20 27L20 26L21 26L21 27L22 27L22 26L25 26L25 25L26 25L26 26L27 26L27 25L26 25L26 24L25 24L25 25L22 25L22 26L21 26L21 25L20 25L20 23L19 23L19 21L20 21L20 20L21 20L21 19L22 19L22 20L23 20L23 19L24 19L24 18L22 18L22 17L25 17L25 18L27 18L27 17L25 17L25 16L23 16L23 15L22 15L22 14L21 14L21 13L20 13L20 14L19 14L19 13L14 13L14 12L15 12L15 11L14 11L14 12L13 12L13 13L12 13L12 11L13 11L13 10L12 10L12 9L11 9L11 8ZM10 9L10 11L11 11L11 9ZM19 9L19 10L18 10L18 11L19 11L19 10L20 10L20 9ZM2 11L2 12L3 12L3 11ZM15 14L15 15L14 15L14 16L15 16L15 17L12 17L12 18L13 18L13 19L12 19L12 21L13 21L13 20L14 20L14 21L16 21L16 22L15 22L15 23L14 23L14 24L15 24L15 25L16 25L16 24L15 24L15 23L16 23L16 22L17 22L17 23L18 23L18 24L17 24L17 25L19 25L19 26L20 26L20 25L19 25L19 23L18 23L18 22L17 22L17 21L19 21L19 18L20 18L20 16L21 16L21 17L22 17L22 16L21 16L21 14L20 14L20 16L17 16L17 15L19 15L19 14L17 14L17 15L16 15L16 14ZM15 15L15 16L16 16L16 15ZM15 17L15 18L16 18L16 19L17 19L17 20L16 20L16 21L17 21L17 20L18 20L18 18L19 18L19 17L18 17L18 18L17 18L17 17ZM14 19L14 20L15 20L15 19ZM25 19L25 20L27 20L27 19ZM21 21L21 24L24 24L24 21ZM22 22L22 23L23 23L23 22ZM14 27L14 28L15 28L15 27ZM0 0L0 7L7 7L7 0ZM1 1L1 6L6 6L6 1ZM2 2L2 5L5 5L5 2ZM22 0L22 7L29 7L29 0ZM23 1L23 6L28 6L28 1ZM24 2L24 5L27 5L27 2ZM0 22L0 29L7 29L7 22ZM1 23L1 28L6 28L6 23ZM2 24L2 27L5 27L5 24Z" fill="#000000"/></g></g></svg>
