<?xml version="1.0" encoding="UTF-8"?>
<svg xmlns="http://www.w3.org/2000/svg" version="1.1" width="300" height="300" viewBox="0 0 300 300"><rect x="0" y="0" width="300" height="300" fill="#ffffff"/><g transform="scale(10.345)"><g transform="translate(0,0)"><path fill-rule="evenodd" d="M10 0L10 2L11 2L11 0ZM12 0L12 1L13 1L13 2L12 2L12 4L13 4L13 3L14 3L14 4L17 4L17 5L15 5L15 6L14 6L14 8L15 8L15 9L12 9L12 7L13 7L13 5L11 5L11 6L10 6L10 4L11 4L11 3L8 3L8 4L9 4L9 5L8 5L8 7L9 7L9 8L6 8L6 9L7 9L7 10L5 10L5 13L4 13L4 12L3 12L3 11L4 11L4 10L3 10L3 9L5 9L5 8L0 8L0 9L2 9L2 10L1 10L1 11L2 11L2 12L1 12L1 13L0 13L0 15L2 15L2 16L0 16L0 21L1 21L1 18L2 18L2 21L4 21L4 20L3 20L3 19L5 19L5 18L6 18L6 19L7 19L7 18L6 18L6 17L8 17L8 18L9 18L9 19L8 19L8 23L9 23L9 24L8 24L8 29L11 29L11 28L10 28L10 27L11 27L11 25L12 25L12 26L13 26L13 27L12 27L12 29L13 29L13 28L14 28L14 29L19 29L19 28L21 28L21 29L24 29L24 28L25 28L25 26L24 26L24 25L25 25L25 24L26 24L26 25L27 25L27 26L26 26L26 27L27 27L27 28L26 28L26 29L27 29L27 28L28 28L28 26L29 26L29 25L27 25L27 24L28 24L28 23L27 23L27 24L26 24L26 22L29 22L29 21L27 21L27 20L29 20L29 19L27 19L27 20L22 20L22 19L21 19L21 18L20 18L20 16L21 16L21 17L22 17L22 18L23 18L23 17L24 17L24 19L25 19L25 17L27 17L27 18L29 18L29 17L27 17L27 16L28 16L28 14L29 14L29 13L28 13L28 14L27 14L27 16L25 16L25 15L26 15L26 13L27 13L27 12L25 12L25 10L26 10L26 11L28 11L28 10L29 10L29 9L28 9L28 8L27 8L27 9L28 9L28 10L26 10L26 8L25 8L25 9L24 9L24 8L23 8L23 9L22 9L22 8L21 8L21 6L20 6L20 8L21 8L21 9L18 9L18 8L17 8L17 9L16 9L16 8L15 8L15 6L16 6L16 7L17 7L17 5L21 5L21 4L19 4L19 3L21 3L21 2L19 2L19 3L16 3L16 0L15 0L15 1L14 1L14 0ZM19 0L19 1L20 1L20 0ZM8 1L8 2L9 2L9 1ZM14 2L14 3L15 3L15 2ZM9 6L9 7L10 7L10 6ZM11 6L11 7L12 7L12 6ZM18 6L18 7L19 7L19 6ZM10 8L10 9L8 9L8 10L9 10L9 12L8 12L8 11L6 11L6 12L8 12L8 13L5 13L5 14L7 14L7 15L5 15L5 17L4 17L4 16L2 16L2 18L5 18L5 17L6 17L6 16L7 16L7 15L8 15L8 13L9 13L9 12L11 12L11 13L10 13L10 14L13 14L13 15L12 15L12 17L11 17L11 16L9 16L9 17L10 17L10 20L11 20L11 22L13 22L13 23L12 23L12 25L15 25L15 26L17 26L17 28L19 28L19 27L20 27L20 26L21 26L21 28L23 28L23 27L24 27L24 26L23 26L23 25L22 25L22 26L21 26L21 25L20 25L20 24L19 24L19 25L18 25L18 26L17 26L17 25L16 25L16 24L18 24L18 23L19 23L19 22L20 22L20 18L19 18L19 17L17 17L17 16L18 16L18 14L19 14L19 16L20 16L20 14L19 14L19 13L21 13L21 12L22 12L22 13L23 13L23 15L22 15L22 14L21 14L21 16L22 16L22 17L23 17L23 15L24 15L24 13L25 13L25 12L24 12L24 13L23 13L23 12L22 12L22 11L24 11L24 9L23 9L23 10L22 10L22 9L21 9L21 10L19 10L19 11L17 11L17 12L19 12L19 13L14 13L14 12L15 12L15 11L14 11L14 12L13 12L13 13L12 13L12 11L13 11L13 10L12 10L12 9L11 9L11 8ZM10 9L10 11L11 11L11 9ZM15 9L15 10L16 10L16 9ZM17 9L17 10L18 10L18 9ZM2 10L2 11L3 11L3 10ZM21 10L21 11L22 11L22 10ZM19 11L19 12L20 12L20 11ZM1 13L1 14L2 14L2 15L3 15L3 14L4 14L4 13ZM15 14L15 15L14 15L14 16L15 16L15 17L12 17L12 18L13 18L13 19L12 19L12 21L13 21L13 20L14 20L14 21L18 21L18 22L17 22L17 23L18 23L18 22L19 22L19 21L18 21L18 20L14 20L14 19L16 19L16 18L17 18L17 19L18 19L18 18L17 18L17 17L16 17L16 15L17 15L17 14ZM24 16L24 17L25 17L25 16ZM15 17L15 18L16 18L16 17ZM5 20L5 21L7 21L7 20ZM21 21L21 24L24 24L24 21ZM25 21L25 22L26 22L26 21ZM15 22L15 23L14 23L14 24L16 24L16 22ZM22 22L22 23L23 23L23 22ZM10 23L10 24L11 24L11 23ZM19 25L19 26L18 26L18 27L19 27L19 26L20 26L20 25ZM22 26L22 27L23 27L23 26ZM14 27L14 28L15 28L15 27ZM0 0L0 7L7 7L7 0ZM1 1L1 6L6 6L6 1ZM2 2L2 5L5 5L5 2ZM22 0L22 7L29 7L29 0ZM23 1L23 6L28 6L28 1ZM24 2L24 5L27 5L27 2ZM0 22L0 29L7 29L7 22ZM1 23L1 28L6 28L6 23ZM2 24L2 27L5 27L5 24Z" fill="#000000"/></g></g></svg>
